<svg xmlns="http://www.w3.org/2000/svg" width="210" height="284" viewBox="0 0 210 284">
  <g transform="rotate(-180 105 142)" fill="none" fill-rule="evenodd">
    <circle fill="#F3F3F8" cx="8" cy="22" r="2"/>
    <circle fill="#F3F3F8" cx="19" cy="22" r="2"/>
    <circle fill="#F3F3F8" cx="53" cy="22" r="2"/>
    <circle fill="#F3F3F8" cx="76" cy="22" r="2"/>
    <circle fill="#F3F3F8" cx="98" cy="22" r="2"/>
    <circle fill="#F3F3F8" cx="121" cy="22" r="2"/>
    <circle fill="#F3F3F8" cx="126" cy="15" r="2"/>
    <circle fill="#F3F3F8" cx="69" cy="15" r="2"/>
    <circle fill="#F3F3F8" cx="131" cy="22" r="2"/>
    <circle fill="#F3F3F8" cx="154" cy="22" r="2"/>
    <circle fill="#F3F3F8" cx="165" cy="22" r="2"/>
    <circle fill="#F3F3F8" cx="176" cy="22" r="2"/>
    <circle fill="#F3F3F8" cx="3" cy="31" r="2"/>
    <circle fill="#F3F3F8" cx="14" cy="31" r="2"/>
    <circle fill="#F3F3F8" cx="27" cy="31" r="2"/>
    <circle fill="#F3F3F8" cx="48" cy="31" r="2"/>
    <circle fill="#F3F3F8" cx="60" cy="31" r="2"/>
    <circle fill="#F3F3F8" cx="81" cy="31" r="2"/>
    <circle fill="#F3F3F8" cx="94" cy="31" r="2"/>
    <circle fill="#F3F3F8" cx="115" cy="31" r="2"/>
    <circle fill="#F3F3F8" cx="127" cy="31" r="2"/>
    <circle fill="#F3F3F8" cx="138" cy="31" r="2"/>
    <circle fill="#F3F3F8" cx="148" cy="31" r="2"/>
    <circle fill="#F3F3F8" cx="161" cy="31" r="2"/>
    <ellipse fill="#F3F3F8" cx="8" cy="38" rx="2" ry="2"/>
    <ellipse fill="#F3F3F8" cx="19" cy="38" rx="2" ry="2"/>
    <ellipse fill="#F3F3F8" cx="31" cy="38" rx="2" ry="2"/>
    <ellipse fill="#F3F3F8" cx="41" cy="38" rx="2" ry="2"/>
    <ellipse fill="#F3F3F8" cx="53" cy="38" rx="2" ry="2"/>
    <ellipse fill="#F3F3F8" cx="64" cy="38" rx="2" ry="2"/>
    <ellipse fill="#F3F3F8" cx="76" cy="38" rx="2" ry="2"/>
    <ellipse fill="#F3F3F8" cx="87" cy="38" rx="2" ry="2"/>
    <ellipse fill="#F3F3F8" cx="98" cy="38" rx="2" ry="2"/>
    <ellipse fill="#F3F3F8" cx="110" cy="38" rx="2" ry="2"/>
    <ellipse fill="#F3F3F8" cx="121" cy="38" rx="2" ry="2"/>
    <ellipse fill="#F3F3F8" cx="131" cy="38" rx="2" ry="2"/>
    <ellipse fill="#B81EDA" cx="142" cy="38" rx="2" ry="2" style="fill: rgba(62, 131, 255, 0.77);"/>
    <ellipse fill="#F3F3F8" cx="154" cy="38" rx="2" ry="2"/>
    <ellipse fill="#F3F3F8" cx="176" cy="38" rx="2" ry="2"/>
    <circle fill="#F3F3F8" cx="3" cy="47" r="2"/>
    <circle fill="#F3F3F8" cx="14" cy="47" r="2"/>
    <circle fill="#F3F3F8" cx="25" cy="47" r="2"/>
    <circle fill="#F3F3F8" cx="36" cy="47" r="2"/>
    <circle fill="#F3F3F8" cx="47" cy="47" r="2"/>
    <circle fill="#F3F3F8" cx="58" cy="47" r="2"/>
    <circle fill="#F3F3F8" cx="70" cy="47" r="2"/>
    <circle fill="#F3F3F8" cx="81" cy="47" r="2"/>
    <circle fill="#F3F3F8" cx="93" cy="47" r="2"/>
    <circle fill="#F3F3F8" cx="103" cy="47" r="2"/>
    <circle fill="#F3F3F8" cx="114" cy="47" r="2"/>
    <circle fill="#F3F3F8" cx="126" cy="47" r="2"/>
    <circle fill="#F3F3F8" cx="137" cy="47" r="2"/>
    <circle fill="#F3F3F8" cx="148" cy="47" r="2"/>
    <circle fill="#F3F3F8" cx="160" cy="47" r="2"/>
    <ellipse fill="#F3F3F8" cx="170" cy="47" rx="2" ry="2"/>
    <circle fill="#F3F3F8" cx="7" cy="53" r="2"/>
    <circle fill="#F3F3F8" cx="19" cy="53" r="2"/>
    <circle fill="#F3F3F8" cx="30" cy="53" r="2"/>
    <circle fill="#F3F3F8" cx="40" cy="53" r="2"/>
    <circle fill="#F3F3F8" cx="52" cy="53" r="2"/>
    <circle fill="#F3F3F8" cx="64" cy="53" r="2"/>
    <circle fill="#F3F3F8" cx="74" cy="53" r="2"/>
    <circle fill="#F3F3F8" cx="86" cy="53" r="2"/>
    <circle fill="#F3F3F8" cx="97" cy="53" r="2"/>
    <circle fill="#F3F3F8" cx="109" cy="53" r="2"/>
    <circle fill="#F3F3F8" cx="120" cy="53" r="2"/>
    <circle fill="#F3F3F8" cx="131" cy="53" r="2"/>
    <circle fill="#F3F3F8" cx="142" cy="53" r="2"/>
    <circle fill="#F3F3F8" cx="154" cy="53" r="2"/>
    <circle fill="#F3F3F8" cx="164" cy="53" r="2"/>
    <circle fill="#F3F3F8" cx="175" cy="53" r="2"/>
    <circle fill="#F3F3F8" cx="2" cy="61" r="2"/>
    <circle fill="#F3F3F8" cx="13" cy="61" r="2"/>
    <circle fill="#F3F3F8" cx="25" cy="61" r="2"/>
    <circle fill="#F3F3F8" cx="35" cy="61" r="2"/>
    <circle fill="#F3F3F8" cx="46" cy="61" r="2"/>
    <circle fill="#F3F3F8" cx="58" cy="61" r="2"/>
    <circle fill="#F3F3F8" cx="69" cy="61" r="2"/>
    <circle fill="#F3F3F8" cx="80" cy="61" r="2"/>
    <circle fill="#F3F3F8" cx="92" cy="61" r="2"/>
    <circle fill="#F3F3F8" cx="103" cy="61" r="2"/>
    <circle fill="#F3F3F8" cx="114" cy="61" r="2"/>
    <circle fill="#F3F3F8" cx="125" cy="61" r="2"/>
    <ellipse fill="#F3F3F8" cx="136" cy="61" rx="2" ry="2"/>
    <circle fill="#F3F3F8" cx="148" cy="61" r="2"/>
    <circle fill="#F3F3F8" cx="159" cy="61" r="2"/>
    <ellipse fill="#F3F3F8" cx="170" cy="61" rx="2" ry="2"/>
    <circle fill="#F3F3F8" cx="182" cy="61" r="2"/>
    <circle fill="#F3F3F8" cx="8" cy="68" r="2"/>
    <circle fill="#F3F3F8" cx="19" cy="68" r="2"/>
    <circle fill="#F3F3F8" cx="31" cy="68" r="2"/>
    <circle fill="#F3F3F8" cx="41" cy="68" r="2"/>
    <circle fill="#F3F3F8" cx="53" cy="68" r="2"/>
    <circle fill="#F3F3F8" cx="64" cy="68" r="2"/>
    <circle fill="#F3F3F8" cx="76" cy="68" r="2"/>
    <circle fill="#F3F3F8" cx="87" cy="68" r="2"/>
    <circle fill="#F3F3F8" cx="98" cy="68" r="2"/>
    <circle fill="#F3F3F8" cx="110" cy="68" r="2"/>
    <circle fill="#F3F3F8" cx="121" cy="68" r="2"/>
    <circle fill="#F3F3F8" cx="131" cy="68" r="2"/>
    <circle fill="#F3F3F8" cx="142" cy="68" r="2"/>
    <circle fill="#F3F3F8" cx="154" cy="68" r="2"/>
    <circle fill="#F3F3F8" cx="165" cy="68" r="2"/>
    <circle fill="#F3F3F8" cx="176" cy="68" r="2"/>
    <circle fill="#F3F3F8" cx="3" cy="76" r="2"/>
    <circle fill="#F3F3F8" cx="14" cy="76" r="2"/>
    <circle fill="#F3F3F8" cx="25" cy="76" r="2"/>
    <circle fill="#F3F3F8" cx="36" cy="76" r="2"/>
    <circle fill="#F3F3F8" cx="47" cy="76" r="2"/>
    <circle fill="#F3F3F8" cx="58" cy="76" r="2"/>
    <circle fill="#F3F3F8" cx="70" cy="76" r="2"/>
    <circle fill="#F3F3F8" cx="81" cy="76" r="2"/>
    <circle fill="#F3F3F8" cx="93" cy="76" r="2"/>
    <circle fill="#F3F3F8" cx="103" cy="76" r="2"/>
    <circle fill="#F3F3F8" cx="114" cy="76" r="2"/>
    <circle fill="#F3F3F8" cx="126" cy="76" r="2"/>
    <circle fill="#F3F3F8" cx="137" cy="76" r="2"/>
    <circle fill="#F3F3F8" cx="148" cy="76" r="2"/>
    <circle fill="#F3F3F8" cx="160" cy="76" r="2"/>
    <ellipse fill="#F3F3F8" cx="170" cy="76" rx="2" ry="2"/>
    <circle fill="#F3F3F8" cx="9" cy="83" r="2"/>
    <circle fill="#F3F3F8" cx="20" cy="83" r="2"/>
    <circle fill="#F3F3F8" cx="31" cy="83" r="2"/>
    <circle fill="#F3F3F8" cx="41" cy="83" r="2"/>
    <circle fill="#F3F3F8" cx="54" cy="83" r="2"/>
    <circle fill="#F3F3F8" cx="65" cy="83" r="2"/>
    <circle fill="#F3F3F8" cx="77" cy="83" r="2"/>
    <circle fill="#F3F3F8" cx="88" cy="83" r="2"/>
    <circle fill="#F3F3F8" cx="98" cy="83" r="2"/>
    <circle fill="#F3F3F8" cx="110" cy="83" r="2"/>
    <circle fill="#F3F3F8" cx="122" cy="83" r="2"/>
    <circle fill="#DC94FC" cx="131" cy="83" r="2" style="&#10;    fill: rgba(62, 131, 255, 0.72);&#10;"/>
    <circle fill="#F3F3F8" cx="143" cy="83" r="2"/>
    <circle fill="#F3F3F8" cx="154" cy="83" r="2"/>
    <circle fill="#F3F3F8" cx="165" cy="83" r="2"/>
    <circle fill="#F3F3F8" cx="177" cy="83" r="2"/>
    <circle fill="#F3F3F8" cx="3" cy="91" r="2"/>
    <circle fill="#F3F3F8" cx="14" cy="91" r="2"/>
    <circle fill="#F3F3F8" cx="25" cy="91" r="2"/>
    <circle fill="#F3F3F8" cx="36" cy="91" r="2"/>
    <circle fill="#F3F3F8" cx="47" cy="91" r="2"/>
    <circle fill="#F3F3F8" cx="58" cy="91" r="2"/>
    <circle fill="#F3F3F8" cx="70" cy="91" r="2"/>
    <circle fill="#F3F3F8" cx="81" cy="91" r="2"/>
    <circle fill="#F3F3F8" cx="93" cy="91" r="2"/>
    <circle fill="#F3F3F8" cx="103" cy="91" r="2"/>
    <circle fill="#F3F3F8" cx="114" cy="91" r="2"/>
    <circle fill="#F3F3F8" cx="126" cy="91" r="2"/>
    <circle fill="#F3F3F8" cx="137" cy="91" r="2"/>
    <circle fill="#F3F3F8" cx="148" cy="91" r="2"/>
    <circle fill="#F3F3F8" cx="160" cy="91" r="2"/>
    <ellipse fill="#F3F3F8" cx="170" cy="91" rx="2" ry="2"/>
    <circle fill="#F3F3F8" cx="182" cy="91" r="2"/>
    <circle fill="#F3F3F8" cx="9" cy="99" r="2"/>
    <circle fill="#F3F3F8" cx="20" cy="99" r="2"/>
    <circle fill="#F3F3F8" cx="31" cy="99" r="2"/>
    <circle fill="#F3F3F8" cx="41" cy="99" r="2"/>
    <circle fill="#F3F3F8" cx="54" cy="99" r="2"/>
    <circle fill="#F3F3F8" cx="65" cy="99" r="2"/>
    <circle fill="#F3F3F8" cx="77" cy="99" r="2"/>
    <circle fill="#F3F3F8" cx="88" cy="99" r="2"/>
    <circle fill="#F3F3F8" cx="98" cy="99" r="2"/>
    <circle fill="#F3F3F8" cx="110" cy="99" r="2"/>
    <circle fill="#F3F3F8" cx="122" cy="99" r="2"/>
    <circle fill="#F3F3F8" cx="131" cy="99" r="2"/>
    <circle fill="#F3F3F8" cx="143" cy="99" r="2"/>
    <circle fill="#F3F3F8" cx="154" cy="99" r="2"/>
    <circle fill="#F3F3F8" cx="165" cy="99" r="2"/>
    <circle fill="#F3F3F8" cx="177" cy="99" r="2"/>
    <circle fill="#F3F3F8" cx="3" cy="106" r="2"/>
    <circle fill="#F3F3F8" cx="14" cy="106" r="2"/>
    <circle fill="#F3F3F8" cx="25" cy="106" r="2"/>
    <circle fill="#F3F3F8" cx="36" cy="106" r="2"/>
    <circle fill="#F3F3F8" cx="47" cy="106" r="2"/>
    <circle fill="#F3F3F8" cx="58" cy="106" r="2"/>
    <circle fill="#F3F3F8" cx="70" cy="106" r="2"/>
    <circle fill="#F3F3F8" cx="81" cy="106" r="2"/>
    <circle fill="#F3F3F8" cx="93" cy="106" r="2"/>
    <circle fill="#F3F3F8" cx="103" cy="106" r="2"/>
    <circle fill="#F3F3F8" cx="114" cy="106" r="2"/>
    <circle fill="#F3F3F8" cx="126" cy="106" r="2"/>
    <circle fill="#F3F3F8" cx="137" cy="106" r="2"/>
    <circle fill="#F3F3F8" cx="148" cy="106" r="2"/>
    <circle fill="#F3F3F8" cx="160" cy="106" r="2"/>
    <ellipse fill="#F3F3F8" cx="170" cy="106" rx="2" ry="2"/>
    <circle fill="#F3F3F8" cx="182" cy="106" r="2"/>
    <circle fill="#F3F3F8" cx="9" cy="113" r="2"/>
    <circle fill="#F3F3F8" cx="20" cy="113" r="2"/>
    <circle fill="#F3F3F8" cx="31" cy="113" r="2"/>
    <circle fill="#F3F3F8" cx="41" cy="113" r="2"/>
    <circle fill="#F3F3F8" cx="54" cy="113" r="2"/>
    <circle fill="#F3F3F8" cx="65" cy="113" r="2"/>
    <circle fill="#F3F3F8" cx="77" cy="113" r="2"/>
    <circle fill="#F3F3F8" cx="88" cy="113" r="2"/>
    <circle fill="#F3F3F8" cx="98" cy="113" r="2"/>
    <circle fill="#F3F3F8" cx="110" cy="113" r="2"/>
    <circle fill="#F3F3F8" cx="122" cy="113" r="2"/>
    <circle fill="#F3F3F8" cx="131" cy="113" r="2"/>
    <circle fill="#F3F3F8" cx="143" cy="113" r="2"/>
    <circle fill="#F3F3F8" cx="154" cy="113" r="2"/>
    <circle fill="#F3F3F8" cx="165" cy="113" r="2"/>
    <circle fill="#F3F3F8" cx="177" cy="113" r="2"/>
    <ellipse fill="#F3F3F8" cx="189" cy="113" rx="2" ry="2"/>
    <circle fill="#F3F3F8" cx="3" cy="121" r="2"/>
    <circle fill="#F3F3F8" cx="14" cy="121" r="2"/>
    <circle fill="#F3F3F8" cx="25" cy="121" r="2"/>
    <circle fill="#F3F3F8" cx="36" cy="121" r="2"/>
    <circle fill="#F3F3F8" cx="47" cy="121" r="2"/>
    <circle fill="#F3F3F8" cx="58" cy="121" r="2"/>
    <circle fill="#F3F3F8" cx="70" cy="121" r="2"/>
    <circle fill="#F3F3F8" cx="81" cy="121" r="2"/>
    <circle fill="#F3F3F8" cx="93" cy="121" r="2"/>
    <circle fill="#F3F3F8" cx="103" cy="121" r="2"/>
    <circle fill="#F3F3F8" cx="114" cy="121" r="2"/>
    <circle fill="#F3F3F8" cx="126" cy="121" r="2"/>
    <circle fill="#F3F3F8" cx="137" cy="121" r="2"/>
    <circle fill="#F3F3F8" cx="148" cy="121" r="2"/>
    <circle fill="#F3F3F8" cx="160" cy="121" r="2"/>
    <ellipse fill="#F3F3F8" cx="170" cy="121" rx="2" ry="2"/>
    <circle fill="#F3F3F8" cx="9" cy="130" r="2"/>
    <circle fill="#F3F3F8" cx="20" cy="130" r="2"/>
    <circle fill="#F3F3F8" cx="31" cy="130" r="2"/>
    <circle fill="#F3F3F8" cx="41" cy="130" r="2"/>
    <circle fill="#F3F3F8" cx="54" cy="130" r="2"/>
    <circle fill="#F3F3F8" cx="65" cy="130" r="2"/>
    <circle fill="#F3F3F8" cx="77" cy="130" r="2"/>
    <circle fill="#F3F3F8" cx="88" cy="130" r="2"/>
    <circle fill="#F3F3F8" cx="98" cy="130" r="2"/>
    <circle fill="#F3F3F8" cx="110" cy="130" r="2"/>
    <circle fill="#F3F3F8" cx="122" cy="130" r="2"/>
    <circle fill="#F3F3F8" cx="131" cy="130" r="2"/>
    <circle fill="#F3F3F8" cx="143" cy="130" r="2"/>
    <circle fill="#F3F3F8" cx="154" cy="130" r="2"/>
    <circle fill="#F3F3F8" cx="165" cy="130" r="2"/>
    <circle fill="#F3F3F8" cx="177" cy="130" r="2"/>
    <circle fill="#F3F3F8" cx="3" cy="138" r="2"/>
    <circle fill="#F3F3F8" cx="14" cy="138" r="2"/>
    <circle fill="#F3F3F8" cx="25" cy="138" r="2"/>
    <circle fill="#F3F3F8" cx="36" cy="138" r="2"/>
    <circle fill="#F3F3F8" cx="47" cy="138" r="2"/>
    <circle fill="#F3F3F8" cx="58" cy="138" r="2"/>
    <circle fill="#F3F3F8" cx="70" cy="138" r="2"/>
    <circle fill="#F3F3F8" cx="81" cy="138" r="2"/>
    <circle fill="#F3F3F8" cx="93" cy="138" r="2"/>
    <circle fill="#F3F3F8" cx="103" cy="138" r="2"/>
    <circle fill="#F3F3F8" cx="114" cy="138" r="2"/>
    <circle fill="#F3F3F8" cx="126" cy="138" r="2"/>
    <circle fill="#F3F3F8" cx="137" cy="138" r="2"/>
    <circle fill="#F3F3F8" cx="148" cy="138" r="2"/>
    <circle fill="#F3F3F8" cx="160" cy="138" r="2"/>
    <ellipse fill="#F3F3F8" cx="170" cy="138" rx="2" ry="2"/>
    <circle fill="#F3F3F8" cx="182" cy="138" r="2"/>
    <circle fill="#F3F3F8" cx="9" cy="145" r="2"/>
    <circle fill="#F3F3F8" cx="20" cy="145" r="2"/>
    <circle fill="#F3F3F8" cx="31" cy="145" r="2"/>
    <circle fill="#F3F3F8" cx="41" cy="145" r="2"/>
    <circle fill="#F3F3F8" cx="54" cy="145" r="2"/>
    <circle fill="#F3F3F8" cx="65" cy="145" r="2"/>
    <circle fill="#F3F3F8" cx="77" cy="145" r="2"/>
    <circle fill="#F3F3F8" cx="88" cy="145" r="2"/>
    <circle fill="#F3F3F8" cx="98" cy="145" r="2"/>
    <circle fill="#F3F3F8" cx="110" cy="145" r="2"/>
    <circle fill="#F3F3F8" cx="122" cy="145" r="2"/>
    <circle fill="#F3F3F8" cx="131" cy="145" r="2"/>
    <circle fill="#F3F3F8" cx="143" cy="145" r="2"/>
    <circle fill="#F3F3F8" cx="154" cy="145" r="2"/>
    <circle fill="#F3F3F8" cx="165" cy="145" r="2"/>
    <circle fill="#F3F3F8" cx="177" cy="145" r="2"/>
    <ellipse fill="#F3F3F8" cx="189" cy="145" rx="2" ry="2"/>
    <circle fill="#F5D5FF" cx="198" cy="128" r="2" style="&#10;    fill: rgba(62, 131, 255, 0.53);&#10;"/>
    <circle fill="#B81EDA" cx="195" cy="93" r="2" style="&#10;    fill: rgba(62, 131, 255, 0.96);&#10;"/>
    <circle fill="#F3F3F8" cx="187" cy="52" r="2"/>
    <circle fill="#F3F3F8" cx="186" cy="32" r="2"/>
    <circle fill="#DC94FC" cx="196" cy="20" r="2" style="&#10;    fill: rgba(62, 131, 255, 0.77);&#10;"/>
    <circle fill="#F3F3F8" cx="160" cy="12" r="2"/>
    <circle fill="#F3F3F8" cx="167" cy="2" r="2"/>
    <circle fill="#F3F3F8" cx="82" cy="7" r="2"/>
    <circle fill="#F3F3F8" cx="3" cy="153" r="2"/>
    <circle fill="#F3F3F8" cx="14" cy="153" r="2"/>
    <circle fill="#F3F3F8" cx="25" cy="153" r="2"/>
    <circle fill="#F3F3F8" cx="36" cy="153" r="2"/>
    <circle fill="#F3F3F8" cx="47" cy="153" r="2"/>
    <circle fill="#F3F3F8" cx="58" cy="153" r="2"/>
    <circle fill="#F3F3F8" cx="70" cy="153" r="2"/>
    <circle fill="#F3F3F8" cx="81" cy="153" r="2"/>
    <circle fill="#F3F3F8" cx="93" cy="153" r="2"/>
    <circle fill="#F3F3F8" cx="103" cy="153" r="2"/>
    <circle fill="#F3F3F8" cx="114" cy="153" r="2"/>
    <circle fill="#F3F3F8" cx="126" cy="153" r="2"/>
    <circle fill="#F5D5FF" cx="137" cy="153" r="2" style="&#10;    fill: rgba(62, 131, 255, 0.53);&#10;"/>
    <circle fill="#F3F3F8" cx="148" cy="153" r="2"/>
    <circle fill="#F3F3F8" cx="160" cy="153" r="2"/>
    <ellipse fill="#F3F3F8" cx="170" cy="153" rx="2" ry="2"/>
    <circle fill="#F3F3F8" cx="182" cy="153" r="2"/>
    <circle fill="#F3F3F8" cx="8" cy="160" r="2"/>
    <circle fill="#F3F3F8" cx="19" cy="160" r="2"/>
    <circle fill="#F3F3F8" cx="31" cy="160" r="2"/>
    <circle fill="#F3F3F8" cx="41" cy="160" r="2"/>
    <circle fill="#F3F3F8" cx="53" cy="160" r="2"/>
    <circle fill="#F3F3F8" cx="64" cy="160" r="2"/>
    <circle fill="#F3F3F8" cx="76" cy="160" r="2"/>
    <circle fill="#F3F3F8" cx="87" cy="160" r="2"/>
    <circle fill="#F3F3F8" cx="98" cy="160" r="2"/>
    <circle fill="#F3F3F8" cx="110" cy="160" r="2"/>
    <circle fill="#F3F3F8" cx="121" cy="160" r="2"/>
    <circle fill="#F3F3F8" cx="131" cy="160" r="2"/>
    <circle fill="#F3F3F8" cx="142" cy="160" r="2"/>
    <circle fill="#F3F3F8" cx="154" cy="160" r="2"/>
    <circle fill="#F3F3F8" cx="165" cy="160" r="2"/>
    <circle fill="#F3F3F8" cx="176" cy="160" r="2"/>
    <ellipse fill="#F3F3F8" cx="189" cy="160" rx="2" ry="2"/>
    <circle fill="#F3F3F8" cx="3" cy="168" r="2"/>
    <circle fill="#F3F3F8" cx="14" cy="168" r="2"/>
    <circle fill="#F3F3F8" cx="27" cy="168" r="2"/>
    <circle fill="#F3F3F8" cx="37" cy="168" r="2"/>
    <circle fill="#F3F3F8" cx="47" cy="168" r="2"/>
    <circle fill="#F3F3F8" cx="60" cy="168" r="2"/>
    <circle fill="#F3F3F8" cx="70" cy="168" r="2"/>
    <circle fill="#F3F3F8" cx="81" cy="168" r="2"/>
    <circle fill="#F3F3F8" cx="94" cy="168" r="2"/>
    <circle fill="#F3F3F8" cx="104" cy="168" r="2"/>
    <circle fill="#F3F3F8" cx="115" cy="168" r="2"/>
    <circle fill="#F3F3F8" cx="127" cy="168" r="2"/>
    <circle fill="#F3F3F8" cx="137" cy="168" r="2"/>
    <circle fill="#F3F3F8" cx="148" cy="168" r="2"/>
    <circle fill="#F3F3F8" cx="161" cy="168" r="2"/>
    <circle fill="#F3F3F8" cx="171" cy="168" r="2"/>
    <circle fill="#F3F3F8" cx="182" cy="168" r="2"/>
    <circle fill="#F3F3F8" cx="194" cy="168" r="2"/>
    <circle fill="#F3F3F8" cx="8" cy="176" r="2"/>
    <circle fill="#F3F3F8" cx="19" cy="176" r="2"/>
    <circle fill="#F3F3F8" cx="31" cy="176" r="2"/>
    <circle fill="#F3F3F8" cx="41" cy="176" r="2"/>
    <circle fill="#F3F3F8" cx="53" cy="176" r="2"/>
    <circle fill="#F3F3F8" cx="64" cy="176" r="2"/>
    <circle fill="#F3F3F8" cx="76" cy="176" r="2"/>
    <circle fill="#F3F3F8" cx="87" cy="176" r="2"/>
    <circle fill="#F3F3F8" cx="98" cy="176" r="2"/>
    <circle fill="#F3F3F8" cx="110" cy="176" r="2"/>
    <circle fill="#F3F3F8" cx="121" cy="176" r="2"/>
    <circle fill="#F3F3F8" cx="131" cy="176" r="2"/>
    <circle fill="#F3F3F8" cx="142" cy="176" r="2"/>
    <circle fill="#F3F3F8" cx="154" cy="176" r="2"/>
    <circle fill="#F3F3F8" cx="165" cy="176" r="2"/>
    <circle fill="#F3F3F8" cx="176" cy="176" r="2"/>
    <circle fill="#F3F3F8" cx="194" cy="184" r="2"/>
    <circle fill="#F3F3F8" cx="3" cy="184" r="2"/>
    <circle fill="#F3F3F8" cx="14" cy="184" r="2"/>
    <circle fill="#F3F3F8" cx="25" cy="184" r="2"/>
    <circle fill="#F3F3F8" cx="36" cy="184" r="2"/>
    <circle fill="#F3F3F8" cx="47" cy="184" r="2"/>
    <circle fill="#F3F3F8" cx="58" cy="184" r="2"/>
    <circle fill="#F3F3F8" cx="70" cy="184" r="2"/>
    <circle fill="#F3F3F8" cx="81" cy="184" r="2"/>
    <circle fill="#F3F3F8" cx="93" cy="184" r="2"/>
    <circle fill="#F3F3F8" cx="103" cy="184" r="2"/>
    <circle fill="#F3F3F8" cx="114" cy="184" r="2"/>
    <circle fill="#F3F3F8" cx="126" cy="184" r="2"/>
    <circle fill="#F3F3F8" cx="137" cy="184" r="2"/>
    <circle fill="#F3F3F8" cx="148" cy="184" r="2"/>
    <circle fill="#F3F3F8" cx="160" cy="184" r="2"/>
    <ellipse fill="#F3F3F8" cx="170" cy="184" rx="2" ry="2"/>
    <circle fill="#F3F3F8" cx="182" cy="184" r="2"/>
    <circle fill="#F3F3F8" cx="9" cy="191" r="2"/>
    <circle fill="#F3F3F8" cx="20" cy="191" r="2"/>
    <circle fill="#F3F3F8" cx="31" cy="191" r="2"/>
    <circle fill="#F3F3F8" cx="41" cy="191" r="2"/>
    <circle fill="#F3F3F8" cx="54" cy="191" r="2"/>
    <circle fill="#F3F3F8" cx="65" cy="191" r="2"/>
    <circle fill="#F3F3F8" cx="77" cy="191" r="2"/>
    <circle fill="#F3F3F8" cx="88" cy="191" r="2"/>
    <circle fill="#F3F3F8" cx="98" cy="191" r="2"/>
    <circle fill="#F3F3F8" cx="110" cy="191" r="2"/>
    <circle fill="#F3F3F8" cx="122" cy="191" r="2"/>
    <circle fill="#F3F3F8" cx="131" cy="191" r="2"/>
    <circle fill="#F3F3F8" cx="143" cy="191" r="2"/>
    <circle fill="#F3F3F8" cx="154" cy="191" r="2"/>
    <circle fill="#F3F3F8" cx="165" cy="191" r="2"/>
    <circle fill="#F3F3F8" cx="177" cy="191" r="2"/>
    <ellipse fill="#F3F3F8" cx="208" cy="182" rx="2" ry="2"/>
    <circle fill="#F3F3F8" cx="3" cy="201" r="2"/>
    <circle fill="#F3F3F8" cx="14" cy="201" r="2"/>
    <circle fill="#F3F3F8" cx="25" cy="201" r="2"/>
    <circle fill="#F3F3F8" cx="36" cy="201" r="2"/>
    <circle fill="#F3F3F8" cx="47" cy="201" r="2"/>
    <circle fill="#F3F3F8" cx="58" cy="201" r="2"/>
    <circle fill="#F3F3F8" cx="70" cy="201" r="2"/>
    <circle fill="#F3F3F8" cx="81" cy="201" r="2"/>
    <circle fill="#F3F3F8" cx="93" cy="201" r="2"/>
    <circle fill="#F3F3F8" cx="103" cy="201" r="2"/>
    <circle fill="#F3F3F8" cx="114" cy="201" r="2"/>
    <circle fill="#F3F3F8" cx="126" cy="201" r="2"/>
    <circle fill="#F3F3F8" cx="137" cy="201" r="2"/>
    <circle fill="#F3F3F8" cx="148" cy="201" r="2"/>
    <circle fill="#B81EDA" cx="160" cy="201" r="2" style="&#10;    fill: #3e83ff;&#10;"/>
    <ellipse fill="#F3F3F8" cx="170" cy="201" rx="2" ry="2"/>
    <circle fill="#F3F3F8" cx="182" cy="201" r="2"/>
    <circle fill="#F3F3F8" cx="9" cy="207" r="2"/>
    <circle fill="#F3F3F8" cx="20" cy="207" r="2"/>
    <circle fill="#F3F3F8" cx="31" cy="207" r="2"/>
    <circle fill="#F3F3F8" cx="41" cy="207" r="2"/>
    <circle fill="#F3F3F8" cx="54" cy="207" r="2"/>
    <circle fill="#F3F3F8" cx="65" cy="207" r="2"/>
    <circle fill="#F3F3F8" cx="77" cy="207" r="2"/>
    <circle fill="#F3F3F8" cx="88" cy="207" r="2"/>
    <circle fill="#F3F3F8" cx="98" cy="207" r="2"/>
    <circle fill="#F3F3F8" cx="110" cy="207" r="2"/>
    <circle fill="#F3F3F8" cx="122" cy="207" r="2"/>
    <circle fill="#F3F3F8" cx="131" cy="207" r="2"/>
    <circle fill="#F3F3F8" cx="143" cy="207" r="2"/>
    <circle fill="#F3F3F8" cx="154" cy="207" r="2"/>
    <circle fill="#F3F3F8" cx="165" cy="207" r="2"/>
    <circle fill="#F3F3F8" cx="177" cy="207" r="2"/>
    <circle fill="#F3F3F8" cx="197" cy="207" r="2"/>
    <circle fill="#F3F3F8" cx="3" cy="216" r="2"/>
    <circle fill="#F3F3F8" cx="14" cy="216" r="2"/>
    <circle fill="#F3F3F8" cx="25" cy="216" r="2"/>
    <circle fill="#F3F3F8" cx="36" cy="216" r="2"/>
    <circle fill="#F3F3F8" cx="47" cy="216" r="2"/>
    <circle fill="#F3F3F8" cx="58" cy="216" r="2"/>
    <circle fill="#F3F3F8" cx="70" cy="216" r="2"/>
    <circle fill="#F3F3F8" cx="81" cy="216" r="2"/>
    <circle fill="#F3F3F8" cx="93" cy="216" r="2"/>
    <circle fill="#F3F3F8" cx="103" cy="216" r="2"/>
    <circle fill="#F3F3F8" cx="114" cy="216" r="2"/>
    <circle fill="#F3F3F8" cx="126" cy="216" r="2"/>
    <circle fill="#F3F3F8" cx="137" cy="216" r="2"/>
    <circle fill="#F3F3F8" cx="148" cy="216" r="2"/>
    <circle fill="#F3F3F8" cx="160" cy="216" r="2"/>
    <ellipse fill="#F3F3F8" cx="170" cy="216" rx="2" ry="2"/>
    <circle fill="#F3F3F8" cx="182" cy="216" r="2"/>
    <circle fill="#F3F3F8" cx="9" cy="224" r="2"/>
    <circle fill="#F3F3F8" cx="20" cy="224" r="2"/>
    <circle fill="#F3F3F8" cx="31" cy="224" r="2"/>
    <circle fill="#F3F3F8" cx="41" cy="224" r="2"/>
    <circle fill="#F3F3F8" cx="54" cy="224" r="2"/>
    <circle fill="#F3F3F8" cx="65" cy="224" r="2"/>
    <circle fill="#F3F3F8" cx="77" cy="224" r="2"/>
    <circle fill="#F3F3F8" cx="88" cy="224" r="2"/>
    <circle fill="#F3F3F8" cx="98" cy="224" r="2"/>
    <circle fill="#F3F3F8" cx="110" cy="224" r="2"/>
    <circle fill="#F3F3F8" cx="122" cy="224" r="2"/>
    <circle fill="#F3F3F8" cx="131" cy="224" r="2"/>
    <circle fill="#F3F3F8" cx="143" cy="224" r="2"/>
    <circle fill="#F3F3F8" cx="154" cy="224" r="2"/>
    <circle fill="#F3F3F8" cx="165" cy="224" r="2"/>
    <circle fill="#F3F3F8" cx="177" cy="224" r="2"/>
    <ellipse fill="#F3F3F8" cx="189" cy="224" rx="2" ry="2"/>
    <circle fill="#F3F3F8" cx="3" cy="233" r="2"/>
    <circle fill="#F3F3F8" cx="14" cy="233" r="2"/>
    <circle fill="#F3F3F8" cx="25" cy="233" r="2"/>
    <circle fill="#F3F3F8" cx="36" cy="233" r="2"/>
    <circle fill="#F3F3F8" cx="47" cy="233" r="2"/>
    <circle fill="#F3F3F8" cx="58" cy="233" r="2"/>
    <circle fill="#F3F3F8" cx="70" cy="233" r="2"/>
    <circle fill="#F3F3F8" cx="81" cy="233" r="2"/>
    <circle fill="#F3F3F8" cx="93" cy="233" r="2"/>
    <circle fill="#F3F3F8" cx="103" cy="233" r="2"/>
    <circle fill="#F3F3F8" cx="114" cy="233" r="2"/>
    <circle fill="#F3F3F8" cx="126" cy="233" r="2"/>
    <circle fill="#F3F3F8" cx="137" cy="233" r="2"/>
    <circle fill="#F3F3F8" cx="148" cy="233" r="2"/>
    <circle fill="#F3F3F8" cx="160" cy="233" r="2"/>
    <ellipse fill="#F3F3F8" cx="170" cy="233" rx="2" ry="2"/>
    <circle fill="#F3F3F8" cx="182" cy="233" r="2"/>
    <circle fill="#F3F3F8" cx="9" cy="239" r="2"/>
    <circle fill="#F3F3F8" cx="20" cy="239" r="2"/>
    <circle fill="#F3F3F8" cx="31" cy="239" r="2"/>
    <circle fill="#F3F3F8" cx="41" cy="239" r="2"/>
    <circle fill="#F3F3F8" cx="54" cy="239" r="2"/>
    <circle fill="#F3F3F8" cx="65" cy="239" r="2"/>
    <circle fill="#F3F3F8" cx="77" cy="239" r="2"/>
    <circle fill="#F3F3F8" cx="88" cy="239" r="2"/>
    <circle fill="#F3F3F8" cx="98" cy="239" r="2"/>
    <circle fill="#F3F3F8" cx="110" cy="239" r="2"/>
    <circle fill="#F3F3F8" cx="122" cy="239" r="2"/>
    <circle fill="#F3F3F8" cx="131" cy="239" r="2"/>
    <circle fill="#F5D5FF" cx="143" cy="239" r="2" style="&#10;    fill: rgba(62, 131, 255, 0.37);&#10;"/>
    <circle fill="#F3F3F8" cx="154" cy="239" r="2"/>
    <circle fill="#F3F3F8" cx="165" cy="239" r="2"/>
    <ellipse fill="#F3F3F8" cx="189" cy="239" rx="2" ry="2"/>
    <circle fill="#F3F3F8" cx="3" cy="249" r="2"/>
    <circle fill="#F3F3F8" cx="14" cy="249" r="2"/>
    <circle fill="#F3F3F8" cx="25" cy="249" r="2"/>
    <circle fill="#F3F3F8" cx="36" cy="249" r="2"/>
    <circle fill="#F3F3F8" cx="47" cy="249" r="2"/>
    <circle fill="#F3F3F8" cx="58" cy="249" r="2"/>
    <circle fill="#F3F3F8" cx="70" cy="249" r="2"/>
    <circle fill="#F3F3F8" cx="81" cy="249" r="2"/>
    <circle fill="#F3F3F8" cx="93" cy="249" r="2"/>
    <circle fill="#F3F3F8" cx="103" cy="249" r="2"/>
    <circle fill="#F3F3F8" cx="114" cy="249" r="2"/>
    <circle fill="#F3F3F8" cx="126" cy="249" r="2"/>
    <circle fill="#F3F3F8" cx="137" cy="249" r="2"/>
    <circle fill="#F3F3F8" cx="148" cy="249" r="2"/>
    <circle fill="#F3F3F8" cx="160" cy="249" r="2"/>
    <ellipse fill="#F3F3F8" cx="170" cy="249" rx="2" ry="2"/>
    <circle fill="#F3F3F8" cx="9" cy="256" r="2"/>
    <circle fill="#F3F3F8" cx="20" cy="256" r="2"/>
    <circle fill="#F3F3F8" cx="31" cy="256" r="2"/>
    <circle fill="#F3F3F8" cx="41" cy="256" r="2"/>
    <circle fill="#F3F3F8" cx="54" cy="256" r="2"/>
    <circle fill="#F3F3F8" cx="65" cy="256" r="2"/>
    <circle fill="#F3F3F8" cx="77" cy="256" r="2"/>
    <circle fill="#F3F3F8" cx="88" cy="256" r="2"/>
    <circle fill="#F3F3F8" cx="98" cy="256" r="2"/>
    <circle fill="#F3F3F8" cx="110" cy="256" r="2"/>
    <circle fill="#F3F3F8" cx="122" cy="256" r="2"/>
    <circle fill="#F3F3F8" cx="131" cy="256" r="2"/>
    <circle fill="#F3F3F8" cx="143" cy="256" r="2"/>
    <circle fill="#F3F3F8" cx="154" cy="256" r="2"/>
    <circle fill="#F3F3F8" cx="165" cy="256" r="2"/>
    <circle fill="#F3F3F8" cx="177" cy="256" r="2"/>
    <circle fill="#F3F3F8" cx="3" cy="265" r="2"/>
    <circle fill="#F3F3F8" cx="14" cy="265" r="2"/>
    <circle fill="#F3F3F8" cx="25" cy="265" r="2"/>
    <circle fill="#F3F3F8" cx="36" cy="265" r="2"/>
    <circle fill="#F3F3F8" cx="47" cy="265" r="2"/>
    <circle fill="#F3F3F8" cx="58" cy="265" r="2"/>
    <circle fill="#F3F3F8" cx="70" cy="265" r="2"/>
    <circle fill="#F3F3F8" cx="81" cy="265" r="2"/>
    <circle fill="#F3F3F8" cx="93" cy="265" r="2"/>
    <circle fill="#F3F3F8" cx="103" cy="265" r="2"/>
    <circle fill="#F3F3F8" cx="114" cy="265" r="2"/>
    <circle fill="#F3F3F8" cx="126" cy="265" r="2"/>
    <circle fill="#F3F3F8" cx="137" cy="265" r="2"/>
    <circle fill="#F3F3F8" cx="148" cy="265" r="2"/>
    <circle fill="#DC94FC" cx="160" cy="265" r="2" style="&#10;    fill: rgba(62, 131, 255, 0.41);&#10;"/>
    <circle fill="#F3F3F8" cx="182" cy="265" r="2"/>
    <circle fill="#F3F3F8" cx="9" cy="271" r="2"/>
    <circle fill="#F3F3F8" cx="20" cy="271" r="2"/>
    <circle fill="#F3F3F8" cx="31" cy="271" r="2"/>
    <circle fill="#F3F3F8" cx="41" cy="271" r="2"/>
    <circle fill="#F3F3F8" cx="54" cy="271" r="2"/>
    <circle fill="#F3F3F8" cx="65" cy="271" r="2"/>
    <circle fill="#F3F3F8" cx="77" cy="271" r="2"/>
    <circle fill="#F3F3F8" cx="88" cy="271" r="2"/>
    <circle fill="#F3F3F8" cx="98" cy="271" r="2"/>
    <circle fill="#F3F3F8" cx="110" cy="271" r="2"/>
    <circle fill="#F3F3F8" cx="122" cy="271" r="2"/>
    <circle fill="#F3F3F8" cx="131" cy="271" r="2"/>
    <circle fill="#F3F3F8" cx="143" cy="271" r="2"/>
    <circle fill="#F3F3F8" cx="154" cy="271" r="2"/>
    <circle fill="#F3F3F8" cx="165" cy="277" r="2"/>
    <circle fill="#B81EDA" cx="185" cy="282" r="2" style="&#10;    fill: rgba(62, 131, 255, 0.83);&#10;"/>
    <circle fill="#F3F3F8" cx="197" cy="272" r="2"/>
  </g>
</svg>