<svg xmlns="http://www.w3.org/2000/svg" width="197" height="280" viewBox="0 0 197 280">
  <g fill="none" fill-rule="evenodd">
    <circle fill="#F3F3F8" cx="8" cy="22" r="2"/>
    <circle fill="#F3F3F8" cx="19" cy="22" r="2"/>
    <circle fill="#F3F3F8" cx="52" cy="22" r="2"/>
    <circle fill="#F3F3F8" cx="75" cy="22" r="2"/>
    <circle fill="#F3F3F8" cx="97" cy="22" r="2"/>
    <circle fill="#F3F3F8" cx="120" cy="22" r="2"/>
    <circle fill="#F3F3F8" cx="124" cy="15" r="2"/>
    <circle fill="#F3F3F8" cx="68" cy="15" r="2"/>
    <circle fill="#F3F3F8" cx="129" cy="22" r="2"/>
    <circle fill="#F3F3F8" cx="152" cy="22" r="2"/>
    <circle fill="#F3F3F8" cx="163" cy="22" r="2"/>
    <circle fill="#F3F3F8" cx="173" cy="22" r="2"/>
    <ellipse fill="#F3F3F8" cx="3" cy="30" rx="2" ry="2"/>
    <ellipse fill="#F3F3F8" cx="14" cy="30" rx="2" ry="2"/>
    <circle fill="#F3F3F8" cx="26" cy="30" r="2"/>
    <circle fill="#F3F3F8" cx="47" cy="30" r="2"/>
    <circle fill="#F3F3F8" cx="59" cy="30" r="2"/>
    <circle fill="#F3F3F8" cx="80" cy="30" r="2"/>
    <circle fill="#F3F3F8" cx="92" cy="30" r="2"/>
    <circle fill="#F3F3F8" cx="113" cy="30" r="2"/>
    <circle fill="#F3F3F8" cx="125" cy="30" r="2"/>
    <circle fill="#F3F3F8" cx="136" cy="30" r="2"/>
    <circle fill="#F3F3F8" cx="146" cy="30" r="2"/>
    <circle fill="#F3F3F8" cx="159" cy="30" r="2"/>
    <circle fill="#F3F3F8" cx="8" cy="38" r="2"/>
    <circle fill="#F3F3F8" cx="19" cy="38" r="2"/>
    <circle fill="#F3F3F8" cx="30" cy="38" r="2"/>
    <circle fill="#F3F3F8" cx="41" cy="38" r="2"/>
    <circle fill="#F3F3F8" cx="52" cy="38" r="2"/>
    <circle fill="#F3F3F8" cx="63" cy="38" r="2"/>
    <circle fill="#F3F3F8" cx="75" cy="38" r="2"/>
    <circle fill="#F3F3F8" cx="86" cy="38" r="2"/>
    <circle fill="#F3F3F8" cx="97" cy="38" r="2"/>
    <circle fill="#F3F3F8" cx="108" cy="38" r="2"/>
    <circle fill="#F3F3F8" cx="120" cy="38" r="2"/>
    <circle fill="#F3F3F8" cx="129" cy="38" r="2"/>
    <circle fill="#B81EDA" cx="140" cy="38" r="2" style="&#10;    fill: #3e83ff;&#10;"/>
    <circle fill="#F3F3F8" cx="152" cy="38" r="2"/>
    <circle fill="#F3F3F8" cx="173" cy="38" r="2"/>
    <ellipse fill="#F3F3F8" cx="3" cy="46" rx="2" ry="2"/>
    <ellipse fill="#F3F3F8" cx="14" cy="46" rx="2" ry="2"/>
    <circle fill="#F3F3F8" cx="25" cy="46" r="2"/>
    <circle fill="#F3F3F8" cx="36" cy="46" r="2"/>
    <circle fill="#F3F3F8" cx="46" cy="46" r="2"/>
    <circle fill="#F3F3F8" cx="58" cy="46" r="2"/>
    <circle fill="#F3F3F8" cx="69" cy="46" r="2"/>
    <circle fill="#F3F3F8" cx="80" cy="46" r="2"/>
    <circle fill="#F3F3F8" cx="91" cy="46" r="2"/>
    <circle fill="#F3F3F8" cx="102" cy="46" r="2"/>
    <ellipse fill="#F3F3F8" cx="112" cy="46" rx="2" ry="2"/>
    <circle fill="#F3F3F8" cx="124" cy="46" r="2"/>
    <circle fill="#F3F3F8" cx="135" cy="46" r="2"/>
    <circle fill="#F3F3F8" cx="146" cy="46" r="2"/>
    <circle fill="#F3F3F8" cx="158" cy="46" r="2"/>
    <circle fill="#F3F3F8" cx="168" cy="46" r="2"/>
    <circle fill="#F3F3F8" cx="7" cy="52" r="2"/>
    <circle fill="#F3F3F8" cx="19" cy="52" r="2"/>
    <circle fill="#F3F3F8" cx="29" cy="52" r="2"/>
    <circle fill="#F3F3F8" cx="40" cy="52" r="2"/>
    <circle fill="#F3F3F8" cx="51" cy="52" r="2"/>
    <circle fill="#F3F3F8" cx="63" cy="52" r="2"/>
    <circle fill="#F3F3F8" cx="73" cy="52" r="2"/>
    <circle fill="#F3F3F8" cx="85" cy="52" r="2"/>
    <ellipse fill="#F3F3F8" cx="96" cy="52" rx="2" ry="2"/>
    <circle fill="#F3F3F8" cx="107" cy="52" r="2"/>
    <circle fill="#F3F3F8" cx="119" cy="52" r="2"/>
    <circle fill="#F3F3F8" cx="129" cy="52" r="2"/>
    <circle fill="#F3F3F8" cx="140" cy="52" r="2"/>
    <circle fill="#F3F3F8" cx="152" cy="52" r="2"/>
    <circle fill="#F3F3F8" cx="162" cy="52" r="2"/>
    <circle fill="#F3F3F8" cx="172" cy="52" r="2"/>
    <circle fill="#F3F3F8" cx="2" cy="60" r="2"/>
    <circle fill="#F3F3F8" cx="13" cy="60" r="2"/>
    <circle fill="#F3F3F8" cx="25" cy="60" r="2"/>
    <ellipse fill="#F3F3F8" cx="35" cy="60" rx="2" ry="2"/>
    <circle fill="#F3F3F8" cx="45" cy="60" r="2"/>
    <circle fill="#F3F3F8" cx="58" cy="60" r="2"/>
    <circle fill="#F3F3F8" cx="68" cy="60" r="2"/>
    <circle fill="#F3F3F8" cx="79" cy="60" r="2"/>
    <ellipse fill="#F3F3F8" cx="90" cy="60" rx="2" ry="2"/>
    <circle fill="#F3F3F8" cx="102" cy="60" r="2"/>
    <ellipse fill="#F3F3F8" cx="112" cy="60" rx="2" ry="2"/>
    <circle fill="#F3F3F8" cx="123" cy="60" r="2"/>
    <circle fill="#F3F3F8" cx="134" cy="60" r="2"/>
    <circle fill="#F3F3F8" cx="146" cy="60" r="2"/>
    <circle fill="#F3F3F8" cx="156" cy="60" r="2"/>
    <circle fill="#F3F3F8" cx="168" cy="60" r="2"/>
    <circle fill="#F3F3F8" cx="180" cy="60" r="2"/>
    <circle fill="#F3F3F8" cx="8" cy="67" r="2"/>
    <circle fill="#F3F3F8" cx="19" cy="67" r="2"/>
    <circle fill="#F3F3F8" cx="30" cy="67" r="2"/>
    <circle fill="#F3F3F8" cx="41" cy="67" r="2"/>
    <circle fill="#F3F3F8" cx="52" cy="67" r="2"/>
    <circle fill="#F3F3F8" cx="63" cy="67" r="2"/>
    <circle fill="#F3F3F8" cx="75" cy="67" r="2"/>
    <circle fill="#F3F3F8" cx="86" cy="67" r="2"/>
    <circle fill="#F3F3F8" cx="97" cy="67" r="2"/>
    <circle fill="#F3F3F8" cx="108" cy="67" r="2"/>
    <circle fill="#F3F3F8" cx="120" cy="67" r="2"/>
    <circle fill="#F3F3F8" cx="129" cy="67" r="2"/>
    <circle fill="#F3F3F8" cx="140" cy="67" r="2"/>
    <circle fill="#F3F3F8" cx="152" cy="67" r="2"/>
    <circle fill="#F3F3F8" cx="163" cy="67" r="2"/>
    <circle fill="#F3F3F8" cx="173" cy="67" r="2"/>
    <ellipse fill="#F3F3F8" cx="3" cy="75" rx="2" ry="2"/>
    <ellipse fill="#F3F3F8" cx="14" cy="75" rx="2" ry="2"/>
    <circle fill="#F3F3F8" cx="25" cy="75" r="2"/>
    <circle fill="#F3F3F8" cx="36" cy="75" r="2"/>
    <circle fill="#F3F3F8" cx="46" cy="75" r="2"/>
    <circle fill="#F3F3F8" cx="58" cy="75" r="2"/>
    <circle fill="#F3F3F8" cx="69" cy="75" r="2"/>
    <circle fill="#F3F3F8" cx="80" cy="75" r="2"/>
    <circle fill="#F3F3F8" cx="91" cy="75" r="2"/>
    <circle fill="#F3F3F8" cx="102" cy="75" r="2"/>
    <ellipse fill="#F3F3F8" cx="112" cy="75" rx="2" ry="2"/>
    <circle fill="#F3F3F8" cx="124" cy="75" r="2"/>
    <circle fill="#F3F3F8" cx="135" cy="75" r="2"/>
    <circle fill="#F3F3F8" cx="146" cy="75" r="2"/>
    <circle fill="#F3F3F8" cx="158" cy="75" r="2"/>
    <circle fill="#F3F3F8" cx="168" cy="75" r="2"/>
    <ellipse fill="#F3F3F8" cx="9" cy="82" rx="2" ry="2"/>
    <circle fill="#F3F3F8" cx="20" cy="82" r="2"/>
    <circle fill="#F3F3F8" cx="30" cy="82" r="2"/>
    <circle fill="#F3F3F8" cx="41" cy="82" r="2"/>
    <circle fill="#F3F3F8" cx="53" cy="82" r="2"/>
    <circle fill="#F3F3F8" cx="64" cy="82" r="2"/>
    <circle fill="#F3F3F8" cx="76" cy="82" r="2"/>
    <circle fill="#F3F3F8" cx="87" cy="82" r="2"/>
    <circle fill="#F3F3F8" cx="97" cy="82" r="2"/>
    <circle fill="#F3F3F8" cx="108" cy="82" r="2"/>
    <ellipse fill="#F3F3F8" cx="121" cy="82" rx="2" ry="2"/>
    <circle fill="#DC94FC" cx="129" cy="82" r="2" style="&#10;    fill: rgba(62, 131, 255, 0.56);&#10;"/>
    <circle fill="#F3F3F8" cx="141" cy="82" r="2"/>
    <circle fill="#F3F3F8" cx="152" cy="82" r="2"/>
    <circle fill="#F3F3F8" cx="163" cy="82" r="2"/>
    <circle fill="#F3F3F8" cx="174" cy="82" r="2"/>
    <ellipse fill="#F3F3F8" cx="3" cy="90" rx="2" ry="2"/>
    <ellipse fill="#F3F3F8" cx="14" cy="90" rx="2" ry="2"/>
    <circle fill="#F3F3F8" cx="25" cy="90" r="2"/>
    <circle fill="#F3F3F8" cx="36" cy="90" r="2"/>
    <circle fill="#F3F3F8" cx="46" cy="90" r="2"/>
    <circle fill="#F3F3F8" cx="58" cy="90" r="2"/>
    <circle fill="#F3F3F8" cx="69" cy="90" r="2"/>
    <circle fill="#F3F3F8" cx="80" cy="90" r="2"/>
    <circle fill="#F3F3F8" cx="91" cy="90" r="2"/>
    <circle fill="#F3F3F8" cx="102" cy="90" r="2"/>
    <ellipse fill="#F3F3F8" cx="112" cy="90" rx="2" ry="2"/>
    <circle fill="#F3F3F8" cx="124" cy="90" r="2"/>
    <circle fill="#F3F3F8" cx="135" cy="90" r="2"/>
    <circle fill="#F3F3F8" cx="146" cy="90" r="2"/>
    <circle fill="#F3F3F8" cx="158" cy="90" r="2"/>
    <circle fill="#F3F3F8" cx="168" cy="90" r="2"/>
    <circle fill="#F3F3F8" cx="180" cy="90" r="2"/>
    <ellipse fill="#F3F3F8" cx="9" cy="97" rx="2" ry="2"/>
    <circle fill="#F3F3F8" cx="20" cy="97" r="2"/>
    <circle fill="#F3F3F8" cx="30" cy="97" r="2"/>
    <circle fill="#F3F3F8" cx="41" cy="97" r="2"/>
    <circle fill="#F3F3F8" cx="53" cy="97" r="2"/>
    <circle fill="#F3F3F8" cx="64" cy="97" r="2"/>
    <circle fill="#F3F3F8" cx="76" cy="97" r="2"/>
    <circle fill="#F3F3F8" cx="87" cy="97" r="2"/>
    <circle fill="#F3F3F8" cx="97" cy="97" r="2"/>
    <circle fill="#F3F3F8" cx="108" cy="97" r="2"/>
    <ellipse fill="#F3F3F8" cx="121" cy="97" rx="2" ry="2"/>
    <circle fill="#F3F3F8" cx="129" cy="97" r="2"/>
    <circle fill="#F3F3F8" cx="141" cy="97" r="2"/>
    <circle fill="#F3F3F8" cx="152" cy="97" r="2"/>
    <circle fill="#F3F3F8" cx="163" cy="97" r="2"/>
    <circle fill="#F3F3F8" cx="174" cy="97" r="2"/>
    <ellipse fill="#F3F3F8" cx="3" cy="105" rx="2" ry="2"/>
    <ellipse fill="#F3F3F8" cx="14" cy="105" rx="2" ry="2"/>
    <circle fill="#F3F3F8" cx="25" cy="105" r="2"/>
    <circle fill="#F3F3F8" cx="36" cy="105" r="2"/>
    <circle fill="#F3F3F8" cx="46" cy="105" r="2"/>
    <circle fill="#F3F3F8" cx="58" cy="105" r="2"/>
    <circle fill="#F3F3F8" cx="69" cy="105" r="2"/>
    <circle fill="#F3F3F8" cx="80" cy="105" r="2"/>
    <circle fill="#F3F3F8" cx="91" cy="105" r="2"/>
    <circle fill="#F3F3F8" cx="102" cy="105" r="2"/>
    <ellipse fill="#F3F3F8" cx="112" cy="105" rx="2" ry="2"/>
    <circle fill="#F3F3F8" cx="124" cy="105" r="2"/>
    <circle fill="#F3F3F8" cx="135" cy="105" r="2"/>
    <circle fill="#F3F3F8" cx="146" cy="105" r="2"/>
    <circle fill="#F3F3F8" cx="158" cy="105" r="2"/>
    <circle fill="#F3F3F8" cx="168" cy="105" r="2"/>
    <circle fill="#F3F3F8" cx="180" cy="105" r="2"/>
    <ellipse fill="#F3F3F8" cx="9" cy="111" rx="2" ry="2"/>
    <circle fill="#F3F3F8" cx="20" cy="111" r="2"/>
    <circle fill="#F3F3F8" cx="30" cy="111" r="2"/>
    <circle fill="#F3F3F8" cx="41" cy="111" r="2"/>
    <circle fill="#F3F3F8" cx="53" cy="111" r="2"/>
    <circle fill="#F3F3F8" cx="64" cy="111" r="2"/>
    <circle fill="#F3F3F8" cx="76" cy="111" r="2"/>
    <circle fill="#F3F3F8" cx="87" cy="111" r="2"/>
    <circle fill="#F3F3F8" cx="97" cy="111" r="2"/>
    <circle fill="#F3F3F8" cx="108" cy="111" r="2"/>
    <ellipse fill="#F3F3F8" cx="121" cy="111" rx="2" ry="2"/>
    <circle fill="#F3F3F8" cx="129" cy="111" r="2"/>
    <circle fill="#F3F3F8" cx="141" cy="111" r="2"/>
    <circle fill="#F3F3F8" cx="152" cy="111" r="2"/>
    <circle fill="#F3F3F8" cx="163" cy="111" r="2"/>
    <circle fill="#F3F3F8" cx="174" cy="111" r="2"/>
    <circle fill="#F3F3F8" cx="186" cy="111" r="2"/>
    <ellipse fill="#F3F3F8" cx="3" cy="119" rx="2" ry="2"/>
    <ellipse fill="#F3F3F8" cx="14" cy="119" rx="2" ry="2"/>
    <circle fill="#F3F3F8" cx="25" cy="119" r="2"/>
    <circle fill="#F3F3F8" cx="36" cy="119" r="2"/>
    <circle fill="#F3F3F8" cx="46" cy="119" r="2"/>
    <circle fill="#F3F3F8" cx="58" cy="119" r="2"/>
    <circle fill="#F3F3F8" cx="69" cy="119" r="2"/>
    <circle fill="#F3F3F8" cx="80" cy="119" r="2"/>
    <circle fill="#F3F3F8" cx="91" cy="119" r="2"/>
    <circle fill="#F3F3F8" cx="102" cy="119" r="2"/>
    <ellipse fill="#F3F3F8" cx="112" cy="119" rx="2" ry="2"/>
    <circle fill="#F3F3F8" cx="124" cy="119" r="2"/>
    <circle fill="#F3F3F8" cx="135" cy="119" r="2"/>
    <circle fill="#F3F3F8" cx="146" cy="119" r="2"/>
    <circle fill="#F3F3F8" cx="158" cy="119" r="2"/>
    <circle fill="#F3F3F8" cx="168" cy="119" r="2"/>
    <ellipse fill="#F3F3F8" cx="9" cy="128" rx="2" ry="2"/>
    <circle fill="#F3F3F8" cx="20" cy="128" r="2"/>
    <circle fill="#F3F3F8" cx="30" cy="128" r="2"/>
    <circle fill="#F3F3F8" cx="41" cy="128" r="2"/>
    <circle fill="#F3F3F8" cx="53" cy="128" r="2"/>
    <circle fill="#F3F3F8" cx="64" cy="128" r="2"/>
    <circle fill="#F3F3F8" cx="76" cy="128" r="2"/>
    <circle fill="#F3F3F8" cx="87" cy="128" r="2"/>
    <circle fill="#F3F3F8" cx="97" cy="128" r="2"/>
    <circle fill="#F3F3F8" cx="108" cy="128" r="2"/>
    <ellipse fill="#F3F3F8" cx="121" cy="128" rx="2" ry="2"/>
    <circle fill="#F3F3F8" cx="129" cy="128" r="2"/>
    <circle fill="#F3F3F8" cx="141" cy="128" r="2"/>
    <circle fill="#F3F3F8" cx="152" cy="128" r="2"/>
    <circle fill="#F3F3F8" cx="163" cy="128" r="2"/>
    <circle fill="#F3F3F8" cx="174" cy="128" r="2"/>
    <ellipse fill="#F3F3F8" cx="3" cy="136" rx="2" ry="2"/>
    <ellipse fill="#F3F3F8" cx="14" cy="136" rx="2" ry="2"/>
    <circle fill="#F3F3F8" cx="25" cy="136" r="2"/>
    <circle fill="#F3F3F8" cx="36" cy="136" r="2"/>
    <circle fill="#F3F3F8" cx="46" cy="136" r="2"/>
    <circle fill="#F3F3F8" cx="58" cy="136" r="2"/>
    <circle fill="#F3F3F8" cx="69" cy="136" r="2"/>
    <circle fill="#F3F3F8" cx="80" cy="136" r="2"/>
    <circle fill="#F3F3F8" cx="91" cy="136" r="2"/>
    <circle fill="#F3F3F8" cx="102" cy="136" r="2"/>
    <ellipse fill="#F3F3F8" cx="112" cy="136" rx="2" ry="2"/>
    <circle fill="#F3F3F8" cx="124" cy="136" r="2"/>
    <circle fill="#F3F3F8" cx="135" cy="136" r="2"/>
    <circle fill="#F3F3F8" cx="146" cy="136" r="2"/>
    <circle fill="#F3F3F8" cx="158" cy="136" r="2"/>
    <circle fill="#F3F3F8" cx="168" cy="136" r="2"/>
    <circle fill="#F3F3F8" cx="180" cy="136" r="2"/>
    <ellipse fill="#F3F3F8" cx="9" cy="143" rx="2" ry="2"/>
    <circle fill="#F3F3F8" cx="20" cy="143" r="2"/>
    <circle fill="#F3F3F8" cx="30" cy="143" r="2"/>
    <circle fill="#F3F3F8" cx="41" cy="143" r="2"/>
    <circle fill="#F3F3F8" cx="53" cy="143" r="2"/>
    <circle fill="#F3F3F8" cx="64" cy="143" r="2"/>
    <circle fill="#F3F3F8" cx="76" cy="143" r="2"/>
    <circle fill="#F3F3F8" cx="87" cy="143" r="2"/>
    <circle fill="#F3F3F8" cx="97" cy="143" r="2"/>
    <circle fill="#F3F3F8" cx="108" cy="143" r="2"/>
    <ellipse fill="#F3F3F8" cx="121" cy="143" rx="2" ry="2"/>
    <circle fill="#F3F3F8" cx="129" cy="143" r="2"/>
    <circle fill="#F3F3F8" cx="141" cy="143" r="2"/>
    <circle fill="#F3F3F8" cx="152" cy="143" r="2"/>
    <circle fill="#F3F3F8" cx="163" cy="143" r="2"/>
    <circle fill="#F3F3F8" cx="174" cy="143" r="2"/>
    <circle fill="#F3F3F8" cx="186" cy="143" r="2"/>
    <circle fill="#F5D5FF" cx="195" cy="126" r="2" style="&#10;    fill: rgba(62, 131, 255, 0.66);&#10;"/>
    <circle fill="#B81EDA" cx="192" cy="92" r="2" style="&#10;    fill: rgba(62, 131, 255, 0.83);&#10;"/>
    <circle fill="#F3F3F8" cx="185" cy="51" r="2"/>
    <circle fill="#F3F3F8" cx="184" cy="31" r="2"/>
    <circle fill="#DC94FC" cx="193" cy="20" r="2" style="&#10;    fill: rgba(62, 131, 255, 0.5);&#10;"/>
    <circle fill="#F3F3F8" cx="158" cy="11" r="2"/>
    <circle fill="#F3F3F8" cx="165" cy="2" r="2"/>
    <circle fill="#F3F3F8" cx="81" cy="7" r="2"/>
    <ellipse fill="#F3F3F8" cx="3" cy="151" rx="2" ry="2"/>
    <ellipse fill="#F3F3F8" cx="14" cy="151" rx="2" ry="2"/>
    <circle fill="#F3F3F8" cx="25" cy="151" r="2"/>
    <circle fill="#F3F3F8" cx="36" cy="151" r="2"/>
    <circle fill="#F3F3F8" cx="46" cy="151" r="2"/>
    <circle fill="#F3F3F8" cx="58" cy="151" r="2"/>
    <circle fill="#F3F3F8" cx="69" cy="151" r="2"/>
    <circle fill="#F3F3F8" cx="80" cy="151" r="2"/>
    <circle fill="#F3F3F8" cx="91" cy="151" r="2"/>
    <circle fill="#F3F3F8" cx="102" cy="151" r="2"/>
    <ellipse fill="#F3F3F8" cx="112" cy="151" rx="2" ry="2"/>
    <circle fill="#F3F3F8" cx="124" cy="151" r="2"/>
    <circle fill="#F5D5FF" cx="135" cy="151" r="2" style="&#10;    fill: rgba(62, 131, 255, 0.37);&#10;"/>
    <circle fill="#F3F3F8" cx="146" cy="151" r="2"/>
    <circle fill="#F3F3F8" cx="158" cy="151" r="2"/>
    <circle fill="#F3F3F8" cx="168" cy="151" r="2"/>
    <circle fill="#F3F3F8" cx="180" cy="151" r="2"/>
    <circle fill="#F3F3F8" cx="8" cy="158" r="2"/>
    <circle fill="#F3F3F8" cx="19" cy="158" r="2"/>
    <circle fill="#F3F3F8" cx="30" cy="158" r="2"/>
    <circle fill="#F3F3F8" cx="41" cy="158" r="2"/>
    <circle fill="#F3F3F8" cx="52" cy="158" r="2"/>
    <circle fill="#F3F3F8" cx="63" cy="158" r="2"/>
    <circle fill="#F3F3F8" cx="75" cy="158" r="2"/>
    <circle fill="#F3F3F8" cx="86" cy="158" r="2"/>
    <circle fill="#F3F3F8" cx="97" cy="158" r="2"/>
    <circle fill="#F3F3F8" cx="108" cy="158" r="2"/>
    <circle fill="#F3F3F8" cx="120" cy="158" r="2"/>
    <circle fill="#F3F3F8" cx="129" cy="158" r="2"/>
    <circle fill="#F3F3F8" cx="140" cy="158" r="2"/>
    <circle fill="#F3F3F8" cx="152" cy="158" r="2"/>
    <circle fill="#F3F3F8" cx="163" cy="158" r="2"/>
    <circle fill="#F3F3F8" cx="173" cy="158" r="2"/>
    <circle fill="#F3F3F8" cx="186" cy="158" r="2"/>
    <ellipse fill="#F3F3F8" cx="3" cy="166" rx="2" ry="2"/>
    <ellipse fill="#F3F3F8" cx="14" cy="166" rx="2" ry="2"/>
    <circle fill="#F3F3F8" cx="26" cy="166" r="2"/>
    <circle fill="#F3F3F8" cx="37" cy="166" r="2"/>
    <circle fill="#F3F3F8" cx="46" cy="166" r="2"/>
    <circle fill="#F3F3F8" cx="59" cy="166" r="2"/>
    <circle fill="#F3F3F8" cx="69" cy="166" r="2"/>
    <circle fill="#F3F3F8" cx="80" cy="166" r="2"/>
    <circle fill="#F3F3F8" cx="92" cy="166" r="2"/>
    <circle fill="#F3F3F8" cx="103" cy="166" r="2"/>
    <circle fill="#F3F3F8" cx="113" cy="166" r="2"/>
    <circle fill="#F3F3F8" cx="125" cy="166" r="2"/>
    <circle fill="#F3F3F8" cx="135" cy="166" r="2"/>
    <circle fill="#F3F3F8" cx="146" cy="166" r="2"/>
    <circle fill="#F3F3F8" cx="159" cy="166" r="2"/>
    <circle fill="#F3F3F8" cx="169" cy="166" r="2"/>
    <circle fill="#F3F3F8" cx="180" cy="166" r="2"/>
    <circle fill="#F3F3F8" cx="191" cy="166" r="2"/>
    <circle fill="#F3F3F8" cx="8" cy="174" r="2"/>
    <circle fill="#F3F3F8" cx="19" cy="174" r="2"/>
    <circle fill="#F3F3F8" cx="30" cy="174" r="2"/>
    <circle fill="#F3F3F8" cx="41" cy="174" r="2"/>
    <circle fill="#F3F3F8" cx="52" cy="174" r="2"/>
    <circle fill="#F3F3F8" cx="63" cy="174" r="2"/>
    <circle fill="#F3F3F8" cx="75" cy="174" r="2"/>
    <circle fill="#F3F3F8" cx="86" cy="174" r="2"/>
    <circle fill="#F3F3F8" cx="97" cy="174" r="2"/>
    <circle fill="#F3F3F8" cx="108" cy="174" r="2"/>
    <circle fill="#F3F3F8" cx="120" cy="174" r="2"/>
    <circle fill="#F3F3F8" cx="129" cy="174" r="2"/>
    <circle fill="#F3F3F8" cx="140" cy="174" r="2"/>
    <circle fill="#F3F3F8" cx="152" cy="174" r="2"/>
    <circle fill="#F3F3F8" cx="163" cy="174" r="2"/>
    <circle fill="#F3F3F8" cx="173" cy="174" r="2"/>
    <circle fill="#F3F3F8" cx="191" cy="181" r="2"/>
    <ellipse fill="#F3F3F8" cx="3" cy="181" rx="2" ry="2"/>
    <ellipse fill="#F3F3F8" cx="14" cy="181" rx="2" ry="2"/>
    <circle fill="#F3F3F8" cx="25" cy="181" r="2"/>
    <circle fill="#F3F3F8" cx="36" cy="181" r="2"/>
    <circle fill="#F3F3F8" cx="46" cy="181" r="2"/>
    <circle fill="#F3F3F8" cx="58" cy="181" r="2"/>
    <circle fill="#F3F3F8" cx="69" cy="181" r="2"/>
    <circle fill="#F3F3F8" cx="80" cy="181" r="2"/>
    <circle fill="#F3F3F8" cx="91" cy="181" r="2"/>
    <circle fill="#F3F3F8" cx="102" cy="181" r="2"/>
    <ellipse fill="#F3F3F8" cx="112" cy="181" rx="2" ry="2"/>
    <circle fill="#F3F3F8" cx="124" cy="181" r="2"/>
    <circle fill="#F3F3F8" cx="135" cy="181" r="2"/>
    <circle fill="#F3F3F8" cx="146" cy="181" r="2"/>
    <circle fill="#F3F3F8" cx="158" cy="181" r="2"/>
    <circle fill="#F3F3F8" cx="168" cy="181" r="2"/>
    <circle fill="#F3F3F8" cx="180" cy="181" r="2"/>
    <ellipse fill="#F3F3F8" cx="9" cy="189" rx="2" ry="2"/>
    <circle fill="#F3F3F8" cx="20" cy="189" r="2"/>
    <circle fill="#F3F3F8" cx="30" cy="189" r="2"/>
    <circle fill="#F3F3F8" cx="41" cy="189" r="2"/>
    <circle fill="#F3F3F8" cx="53" cy="189" r="2"/>
    <circle fill="#F3F3F8" cx="64" cy="189" r="2"/>
    <circle fill="#F3F3F8" cx="76" cy="189" r="2"/>
    <circle fill="#F3F3F8" cx="87" cy="189" r="2"/>
    <circle fill="#F3F3F8" cx="97" cy="189" r="2"/>
    <circle fill="#F3F3F8" cx="108" cy="189" r="2"/>
    <ellipse fill="#F3F3F8" cx="121" cy="189" rx="2" ry="2"/>
    <circle fill="#F3F3F8" cx="129" cy="189" r="2"/>
    <circle fill="#F3F3F8" cx="141" cy="189" r="2"/>
    <circle fill="#F3F3F8" cx="152" cy="189" r="2"/>
    <circle fill="#F3F3F8" cx="163" cy="189" r="2"/>
    <circle fill="#F3F3F8" cx="174" cy="189" r="2"/>
    <ellipse fill="#F3F3F8" cx="3" cy="198" rx="2" ry="2"/>
    <ellipse fill="#F3F3F8" cx="14" cy="198" rx="2" ry="2"/>
    <circle fill="#F3F3F8" cx="25" cy="198" r="2"/>
    <circle fill="#F3F3F8" cx="36" cy="198" r="2"/>
    <circle fill="#F3F3F8" cx="46" cy="198" r="2"/>
    <circle fill="#F3F3F8" cx="58" cy="198" r="2"/>
    <circle fill="#F3F3F8" cx="69" cy="198" r="2"/>
    <circle fill="#F3F3F8" cx="80" cy="198" r="2"/>
    <circle fill="#F3F3F8" cx="91" cy="198" r="2"/>
    <circle fill="#F3F3F8" cx="102" cy="198" r="2"/>
    <ellipse fill="#F3F3F8" cx="112" cy="198" rx="2" ry="2"/>
    <circle fill="#F3F3F8" cx="124" cy="198" r="2"/>
    <circle fill="#F3F3F8" cx="135" cy="198" r="2"/>
    <circle fill="#F3F3F8" cx="146" cy="198" r="2"/>
    <circle fill="#B81EDA" cx="158" cy="198" r="2" style="&#10;    fill: #3e83ff;&#10;"/>
    <circle fill="#F3F3F8" cx="168" cy="198" r="2"/>
    <circle fill="#F3F3F8" cx="180" cy="198" r="2"/>
    <ellipse fill="#F3F3F8" cx="9" cy="204" rx="2" ry="2"/>
    <circle fill="#F3F3F8" cx="20" cy="204" r="2"/>
    <circle fill="#F3F3F8" cx="30" cy="204" r="2"/>
    <circle fill="#F3F3F8" cx="41" cy="204" r="2"/>
    <circle fill="#F3F3F8" cx="53" cy="204" r="2"/>
    <circle fill="#F3F3F8" cx="64" cy="204" r="2"/>
    <circle fill="#F3F3F8" cx="76" cy="204" r="2"/>
    <circle fill="#F3F3F8" cx="87" cy="204" r="2"/>
    <circle fill="#F3F3F8" cx="97" cy="204" r="2"/>
    <circle fill="#F3F3F8" cx="108" cy="204" r="2"/>
    <ellipse fill="#F3F3F8" cx="121" cy="204" rx="2" ry="2"/>
    <circle fill="#F3F3F8" cx="129" cy="204" r="2"/>
    <circle fill="#F3F3F8" cx="141" cy="204" r="2"/>
    <circle fill="#F3F3F8" cx="152" cy="204" r="2"/>
    <circle fill="#F3F3F8" cx="163" cy="204" r="2"/>
    <circle fill="#F3F3F8" cx="174" cy="204" r="2"/>
    <circle fill="#F3F3F8" cx="194" cy="204" r="2"/>
    <ellipse fill="#F3F3F8" cx="3" cy="213" rx="2" ry="2"/>
    <ellipse fill="#F3F3F8" cx="14" cy="213" rx="2" ry="2"/>
    <circle fill="#F3F3F8" cx="25" cy="213" r="2"/>
    <circle fill="#F3F3F8" cx="36" cy="213" r="2"/>
    <circle fill="#F3F3F8" cx="46" cy="213" r="2"/>
    <circle fill="#F3F3F8" cx="58" cy="213" r="2"/>
    <circle fill="#F3F3F8" cx="69" cy="213" r="2"/>
    <circle fill="#F3F3F8" cx="80" cy="213" r="2"/>
    <circle fill="#F3F3F8" cx="91" cy="213" r="2"/>
    <circle fill="#F3F3F8" cx="102" cy="213" r="2"/>
    <ellipse fill="#F3F3F8" cx="112" cy="213" rx="2" ry="2"/>
    <circle fill="#F3F3F8" cx="124" cy="213" r="2"/>
    <circle fill="#F3F3F8" cx="135" cy="213" r="2"/>
    <circle fill="#F3F3F8" cx="146" cy="213" r="2"/>
    <circle fill="#F3F3F8" cx="158" cy="213" r="2"/>
    <circle fill="#F3F3F8" cx="168" cy="213" r="2"/>
    <circle fill="#F3F3F8" cx="180" cy="213" r="2"/>
    <ellipse fill="#F3F3F8" cx="9" cy="221" rx="2" ry="2"/>
    <circle fill="#F3F3F8" cx="20" cy="221" r="2"/>
    <circle fill="#F3F3F8" cx="30" cy="221" r="2"/>
    <circle fill="#F3F3F8" cx="41" cy="221" r="2"/>
    <circle fill="#F3F3F8" cx="53" cy="221" r="2"/>
    <circle fill="#F3F3F8" cx="64" cy="221" r="2"/>
    <circle fill="#F3F3F8" cx="76" cy="221" r="2"/>
    <circle fill="#F3F3F8" cx="87" cy="221" r="2"/>
    <circle fill="#F3F3F8" cx="97" cy="221" r="2"/>
    <circle fill="#F3F3F8" cx="108" cy="221" r="2"/>
    <ellipse fill="#F3F3F8" cx="121" cy="221" rx="2" ry="2"/>
    <circle fill="#F3F3F8" cx="129" cy="221" r="2"/>
    <circle fill="#F3F3F8" cx="141" cy="221" r="2"/>
    <circle fill="#F3F3F8" cx="152" cy="221" r="2"/>
    <circle fill="#F3F3F8" cx="163" cy="221" r="2"/>
    <circle fill="#F3F3F8" cx="174" cy="221" r="2"/>
    <circle fill="#F3F3F8" cx="186" cy="221" r="2"/>
    <ellipse fill="#F3F3F8" cx="3" cy="230" rx="2" ry="2"/>
    <ellipse fill="#F3F3F8" cx="14" cy="230" rx="2" ry="2"/>
    <circle fill="#F3F3F8" cx="25" cy="230" r="2"/>
    <circle fill="#F3F3F8" cx="36" cy="230" r="2"/>
    <circle fill="#F3F3F8" cx="46" cy="230" r="2"/>
    <circle fill="#F3F3F8" cx="58" cy="230" r="2"/>
    <circle fill="#F3F3F8" cx="69" cy="230" r="2"/>
    <circle fill="#F3F3F8" cx="80" cy="230" r="2"/>
    <circle fill="#F3F3F8" cx="91" cy="230" r="2"/>
    <circle fill="#F3F3F8" cx="102" cy="230" r="2"/>
    <ellipse fill="#F3F3F8" cx="112" cy="230" rx="2" ry="2"/>
    <circle fill="#F3F3F8" cx="124" cy="230" r="2"/>
    <circle fill="#F3F3F8" cx="135" cy="230" r="2"/>
    <circle fill="#F3F3F8" cx="146" cy="230" r="2"/>
    <circle fill="#F3F3F8" cx="158" cy="230" r="2"/>
    <circle fill="#F3F3F8" cx="168" cy="230" r="2"/>
    <circle fill="#F3F3F8" cx="180" cy="230" r="2"/>
    <ellipse fill="#F3F3F8" cx="9" cy="236" rx="2" ry="2"/>
    <circle fill="#F3F3F8" cx="20" cy="236" r="2"/>
    <circle fill="#F3F3F8" cx="30" cy="236" r="2"/>
    <circle fill="#F3F3F8" cx="41" cy="236" r="2"/>
    <circle fill="#F3F3F8" cx="53" cy="236" r="2"/>
    <circle fill="#F3F3F8" cx="64" cy="236" r="2"/>
    <circle fill="#F3F3F8" cx="76" cy="236" r="2"/>
    <circle fill="#F3F3F8" cx="87" cy="236" r="2"/>
    <circle fill="#F3F3F8" cx="97" cy="236" r="2"/>
    <circle fill="#F3F3F8" cx="108" cy="236" r="2"/>
    <ellipse fill="#F3F3F8" cx="121" cy="236" rx="2" ry="2"/>
    <circle fill="#F3F3F8" cx="129" cy="236" r="2"/>
    <circle fill="#F5D5FF" cx="141" cy="236" r="2" style="&#10;    fill: rgba(62, 131, 255, 0.39);&#10;"/>
    <circle fill="#F3F3F8" cx="152" cy="236" r="2"/>
    <circle fill="#F3F3F8" cx="163" cy="236" r="2"/>
    <circle fill="#F3F3F8" cx="186" cy="236" r="2"/>
    <ellipse fill="#F3F3F8" cx="3" cy="245" rx="2" ry="2"/>
    <ellipse fill="#F3F3F8" cx="14" cy="245" rx="2" ry="2"/>
    <circle fill="#F3F3F8" cx="25" cy="245" r="2"/>
    <circle fill="#F3F3F8" cx="36" cy="245" r="2"/>
    <circle fill="#F3F3F8" cx="46" cy="245" r="2"/>
    <circle fill="#F3F3F8" cx="58" cy="245" r="2"/>
    <circle fill="#F3F3F8" cx="69" cy="245" r="2"/>
    <circle fill="#F3F3F8" cx="80" cy="245" r="2"/>
    <circle fill="#F3F3F8" cx="91" cy="245" r="2"/>
    <circle fill="#F3F3F8" cx="102" cy="245" r="2"/>
    <ellipse fill="#F3F3F8" cx="112" cy="245" rx="2" ry="2"/>
    <circle fill="#F3F3F8" cx="124" cy="245" r="2"/>
    <circle fill="#F3F3F8" cx="135" cy="245" r="2"/>
    <circle fill="#F3F3F8" cx="146" cy="245" r="2"/>
    <circle fill="#F3F3F8" cx="158" cy="245" r="2"/>
    <circle fill="#F3F3F8" cx="168" cy="245" r="2"/>
    <ellipse fill="#F3F3F8" cx="9" cy="253" rx="2" ry="2"/>
    <circle fill="#F3F3F8" cx="20" cy="253" r="2"/>
    <circle fill="#F3F3F8" cx="30" cy="253" r="2"/>
    <circle fill="#F3F3F8" cx="41" cy="253" r="2"/>
    <circle fill="#F3F3F8" cx="53" cy="253" r="2"/>
    <circle fill="#F3F3F8" cx="64" cy="253" r="2"/>
    <circle fill="#F3F3F8" cx="76" cy="253" r="2"/>
    <circle fill="#F3F3F8" cx="87" cy="253" r="2"/>
    <circle fill="#F3F3F8" cx="97" cy="253" r="2"/>
    <circle fill="#F3F3F8" cx="108" cy="253" r="2"/>
    <ellipse fill="#F3F3F8" cx="121" cy="253" rx="2" ry="2"/>
    <circle fill="#F3F3F8" cx="129" cy="253" r="2"/>
    <circle fill="#F3F3F8" cx="141" cy="253" r="2"/>
    <circle fill="#F3F3F8" cx="152" cy="253" r="2"/>
    <circle fill="#F3F3F8" cx="163" cy="253" r="2"/>
    <circle fill="#F3F3F8" cx="174" cy="253" r="2"/>
    <ellipse fill="#F3F3F8" cx="3" cy="261" rx="2" ry="2"/>
    <ellipse fill="#F3F3F8" cx="14" cy="261" rx="2" ry="2"/>
    <circle fill="#F3F3F8" cx="25" cy="261" r="2"/>
    <circle fill="#F3F3F8" cx="36" cy="261" r="2"/>
    <circle fill="#F3F3F8" cx="46" cy="261" r="2"/>
    <circle fill="#F3F3F8" cx="58" cy="261" r="2"/>
    <circle fill="#F3F3F8" cx="69" cy="261" r="2"/>
    <circle fill="#F3F3F8" cx="80" cy="261" r="2"/>
    <circle fill="#F3F3F8" cx="91" cy="261" r="2"/>
    <circle fill="#F3F3F8" cx="102" cy="261" r="2"/>
    <ellipse fill="#F3F3F8" cx="112" cy="261" rx="2" ry="2"/>
    <circle fill="#F3F3F8" cx="124" cy="261" r="2"/>
    <circle fill="#F3F3F8" cx="135" cy="261" r="2"/>
    <circle fill="#F3F3F8" cx="146" cy="261" r="2"/>
    <circle fill="#DC94FC" cx="158" cy="261" r="2" style="&#10;    fill: rgba(62, 131, 255, 0.85);&#10;"/>
    <circle fill="#F3F3F8" cx="180" cy="261" r="2"/>
    <ellipse fill="#F3F3F8" cx="9" cy="267" rx="2" ry="2"/>
    <circle fill="#F3F3F8" cx="20" cy="267" r="2"/>
    <circle fill="#F3F3F8" cx="30" cy="267" r="2"/>
    <circle fill="#F3F3F8" cx="41" cy="267" r="2"/>
    <circle fill="#F3F3F8" cx="53" cy="267" r="2"/>
    <circle fill="#F3F3F8" cx="64" cy="267" r="2"/>
    <circle fill="#F3F3F8" cx="76" cy="267" r="2"/>
    <circle fill="#F3F3F8" cx="87" cy="267" r="2"/>
    <circle fill="#F3F3F8" cx="97" cy="267" r="2"/>
    <circle fill="#F3F3F8" cx="108" cy="267" r="2"/>
    <ellipse fill="#F3F3F8" cx="121" cy="267" rx="2" ry="2"/>
    <circle fill="#F3F3F8" cx="129" cy="267" r="2"/>
    <circle fill="#F3F3F8" cx="141" cy="267" r="2"/>
    <circle fill="#F3F3F8" cx="152" cy="267" r="2"/>
    <circle fill="#F3F3F8" cx="163" cy="274" r="2"/>
    <circle fill="#B81EDA" cx="183" cy="278" r="2" style="&#10;    fill: #3e83ff;&#10;"/>
    <circle fill="#F3F3F8" cx="194" cy="268" r="2"/>
  </g>
</svg>