<svg xmlns="http://www.w3.org/2000/svg" xmlns:xlink="http://www.w3.org/1999/xlink" width="60px" height="78px" viewBox="0 0 60 78" version="1.1">
    <!-- Generator: Sketch 42 (36781) - http://www.bohemiancoding.com/sketch -->
    <title>dynamic-pricing</title>
    <desc>Created with Sketch.</desc>
    <defs/>
    <g id="Page-1" stroke="none" stroke-width="1" fill="none" fill-rule="evenodd">
        <g id="Artboard" transform="translate(-233.000000, -19.000000)">
            <g id="icn-dynamic-pricing" transform="translate(235.000000, 19.000000)">
                <path d="M32.3136905,2.37551489 C32.4194368,2.26976859 32.4194368,2.08848924 32.3136905,1.98274295 L30.4102573,0.0793097179 C30.304511,-0.0264365726 30.1232316,-0.0264365726 30.0174853,0.0793097179 L24.2316526,5.88024909 L21.7088482,3.34233811 C21.6031019,3.23659182 21.4218226,3.23659182 21.3160763,3.34233811 L19.4126431,5.24577134 C19.3068968,5.35151763 19.3068968,5.53279699 19.4126431,5.63854328 L24.0352666,10.2611668 C24.0956931,10.3064867 24.1561195,10.3366999 24.2316526,10.3366999 C24.3071856,10.3366999 24.3676121,10.3064867 24.4280385,10.2611668 L32.3136905,2.37551489 Z" id="check" fill="#5CDDB2"/>
                <g id="target" transform="translate(0.000000, 25.133333)">
                    <ellipse id="Oval-10" fill="#CA45F2" opacity="0.683197464" cx="23.2" cy="28.0333333" rx="7.73333333" ry="7.73333333" style="&#10;    fill: #3e83ff;&#10;"/>
                    <ellipse id="Oval-10" stroke="#DC94FC" stroke-width="4" cx="23.2" cy="28.0333333" rx="14.5" ry="14.5" style="stroke: rgba(62, 131, 255, 0.82);"/>
                    <ellipse id="Oval-10" stroke="#F5D5FF" stroke-width="4" cx="22.7166667" cy="27.55" rx="22.7166667" ry="22.7166667" style="&#10;    stroke: rgba(62, 131, 255, 0.52);&#10;"/>
                    <path d="M23.2,27.0666667 L52.6672222,8.24210526" id="Path-5" stroke="#CA45F2" stroke-width="2" style="&#10;    stroke: #3e83ff;&#10;"/>
                    <path d="M38.9781517,16.9608883 C38.5151231,17.2618992 38.5901121,17.551697 39.1389979,17.6074941 L46.4776345,18.3535047 C47.0294961,18.4096043 47.8602455,18.2307748 48.3374912,17.9515468 L56.7104118,13.0527003 C57.1857207,12.7746056 57.1264577,12.5083808 56.5789668,12.4581552 L47.2245141,11.6 L38.9781517,16.9608883 Z" id="Path-6" stroke="#CA45F2" stroke-width="2" style="&#10;    stroke: #3e83ff;&#10;"/>
                    <path d="M35.1104598,12.1260908 C34.6474312,12.4271017 34.7224202,12.7168994 35.2713059,12.7726965 L42.6099426,13.5187071 C43.1618041,13.5748067 43.9925535,13.3959772 44.4697992,13.1167493 L52.8427198,8.21790278 C53.3180288,7.939808 53.2587657,7.67358319 52.7112749,7.62335769 L43.3568221,6.76520244 L35.1104598,12.1260908 Z" id="Path-6" stroke="#CA45F2" stroke-width="2" transform="translate(43.983643, 10.148692) scale(-1, 1) rotate(-110.000000) translate(-43.983643, -10.148692) " style="&#10;    stroke: #3e83ff;&#10;"/>
                </g>
            </g>
        </g>
    </g>
</svg>