<svg width="971.7" height="764.21" xmlns="http://www.w3.org/2000/svg" xmlns:xlink="http://www.w3.org/1999/xlink">
 <defs>
  <linearGradient y2="-0.000014" x2="0.500748" y1="1.001087" x1="0.500748" id="7a49f6f8-cfb3-4a5a-81e0-f7f3caa92e45">
   <stop stop-opacity="0.25" stop-color="gray" offset="0"/>
   <stop stop-opacity="0.12" stop-color="gray" offset="0.54"/>
   <stop stop-opacity="0.1" stop-color="gray" offset="1"/>
  </linearGradient>
  <linearGradient xlink:href="#7a49f6f8-cfb3-4a5a-81e0-f7f3caa92e45" y2="375.83" x2="303.98" y1="804.79" x1="303.98" id="53018405-060f-4bce-97d3-1ae9b44325c4"/>
 </defs>
 <title>data_report</title>
 <g>
  <title>background</title>
  <rect fill="none" id="canvas_background" height="402" width="582" y="-1" x="-1"/>
 </g>
 <g>
  <title>Layer 1</title>
  <g id="svg_1" opacity="0.5">
   <path id="svg_2" fill="#6c63ff" d="m693.989998,0.099998c-3.81,-0.06 -8.62,1 -11.56,6.27c-5.76,10.36 3.51,20.55 -1.27,31.59a18.38,18.38 0 0 1 -6.2,7.48c-4.62,3.33 -9.33,4.32 -14,6.31a25.66,25.66 0 0 0 -13.11,11.7a30.62,30.62 0 0 0 -2.76,18.57c0.92,5.52 3.09,9.9 4.88,14.62a91.71,91.71 0 0 1 4.69,18.06a33.36,33.36 0 0 1 0.46,8.72a54.91,54.91 0 0 1 -2.69,10.89l-10.28,32.19a75.18,75.18 0 0 0 -3.3,12.9a54.21,54.21 0 0 0 0.4,13.75c1.12,9.42 2.37,19.22 6.83,25.11s13.21,6.27 19.61,-2.08c6.09,-8 7.66,-20.1 13.24,-28.8c8.79,-13.72 22.85,-12.53 32.27,-25.38c9,-12.32 8.86,-30.1 14.51,-45.26c4,-10.86 11,-20 15.72,-30.55c6.81,-15.21 8.37,-32.29 6,-45.77a67.93,67.93 0 0 0 -15.15,-32.09c-2.92,-3.54 -6.1,-6.83 -10.15,-8c-4.31,-1.28 -8.61,2 -13.05,2.3c-5.13,0.26 -9.92,-2.45 -15.09,-2.53z"/>
   <path id="svg_3" stroke-width="2" stroke-miterlimit="10" stroke="#535461" fill="none" d="m718.149998,0.199998s-24.8,143.65 -66,222.08"/>
   <path id="svg_4" stroke-width="2" stroke-miterlimit="10" stroke="#535461" fill="none" d="m682.149998,7.029998s30.26,31 18.68,73.84"/>
   <path id="svg_5" stroke-width="2" stroke-miterlimit="10" stroke="#535461" fill="none" d="m646.479998,66.619998s53.25,21.22 46.21,45.34"/>
   <path id="svg_6" stroke-width="2" stroke-miterlimit="10" stroke="#535461" fill="none" d="m747.589998,40.099998s-23.74,9.67 -48.34,47.11"/>
   <path id="svg_7" stroke-width="2" stroke-miterlimit="10" stroke="#535461" fill="none" d="m710.849998,162.149998s-16.07,5.58 -24.28,-29"/>
   <path id="svg_8" stroke-width="2" stroke-miterlimit="10" stroke="#535461" fill="none" d="m643.999998,165.439998s30.92,4.12 35.52,-10"/>
  </g>
  <g id="svg_9" opacity="0.5">
   <path id="svg_10" fill="#6c63ff" d="m101.219998,177.899998c-2.14,3.16 -3.9,7.75 -1.1,13.1c5.5,10.5 19.1,8.34 25.71,18.39a18.38,18.38 0 0 1 2.85,9.29c0.25,5.69 -1.51,10.17 -2.42,15.18a25.66,25.66 0 0 0 2.59,17.35a30.62,30.62 0 0 0 14,12.49c5.12,2.26 10,2.84 14.9,3.94a91.71,91.71 0 0 1 17.67,6a33.36,33.36 0 0 1 7.54,4.4a54.91,54.91 0 0 1 7.63,8.22l21.27,26.26a75.18,75.18 0 0 0 9,9.84a54.21,54.21 0 0 0 11.72,7.21c8.49,4.23 17.37,8.56 24.74,8.07s12.49,-7.6 9,-17.54c-3.3,-9.46 -12.6,-17.43 -16.82,-26.87c-6.65,-14.88 2.06,-26 -3.51,-40.9c-5.34,-14.32 -20.31,-23.92 -29.87,-37c-6.86,-9.34 -10.68,-20.16 -16.91,-29.91c-9,-14 -22.4,-24.71 -35,-30.13a67.93,67.93 0 0 0 -35.15,-4.94c-4.56,0.5 -9.05,1.35 -12.29,4.08c-3.44,2.9 -3,8.32 -5.24,12.17c-2.5,4.5 -7.4,7.02 -10.31,11.3z"/>
   <path id="svg_11" stroke-width="2" stroke-miterlimit="10" stroke="#535461" fill="none" d="m114.569998,157.759998s106.48,99.55 149.42,177.06"/>
   <path id="svg_12" stroke-width="2" stroke-miterlimit="10" stroke="#535461" fill="none" d="m100.529998,191.599998s42.55,-8.27 72,24.9"/>
   <path id="svg_13" stroke-width="2" stroke-miterlimit="10" stroke="#535461" fill="none" d="m130.769998,254.099998s47,-32.87 63.26,-13.75"/>
   <path id="svg_14" stroke-width="2" stroke-miterlimit="10" stroke="#535461" fill="none" d="m164.089998,155.099998s-4.95,25.16 12.86,66.26"/>
   <path id="svg_15" stroke-width="2" stroke-miterlimit="10" stroke="#535461" fill="none" d="m245.959998,252.709998s-4.16,16.5 -37.6,4.37"/>
   <path id="svg_16" stroke-width="2" stroke-miterlimit="10" stroke="#535461" fill="none" d="m212.019998,310.419998s20.41,-23.59 11.13,-35.17"/>
  </g>
  <path id="svg_17" fill="#3e83ff" d="m81.209998,62.429998c-5,5.91 -9.68,14.09 -6,22.16c7.14,15.81 33.33,8.1 42.68,22.84c2.8,4.41 3.18,9.8 2.53,14.61c-1.26,9.41 -5.92,17.4 -9.14,26s-4.89,19 -0.35,28.08c4.37,8.79 13.58,14.34 22.5,16.55s17.86,1.71 26.77,2a148.2,148.2 0 0 1 31.35,4.62a43.31,43.31 0 0 1 12.82,5c4.55,2.91 8.23,7.18 11.83,11.38l32,37.29c4.25,5 8.59,10 13.86,13.67c6.08,4.23 13,6.38 19.81,8.45c14.65,4.48 30,9 44,5.93s25.75,-16.45 22.25,-31.94c-3.33,-14.75 -18.35,-25.21 -23.41,-39.66c-8,-22.77 11.75,-43.89 5.82,-67.06c-5.68,-22.22 -30.86,-33.68 -44.86,-52.49c-10,-13.48 -13.94,-30.34 -22.68,-44.68c-12.59,-20.66 -34.55,-34.37 -56.5,-39.57s-44.02,-2.69 -64.56,2.49c-8.7,2.21 -17.4,5 -24.3,10.52c-7.33,5.87 -8.18,14.77 -13.52,21.86c-6.19,8.26 -16.16,13.94 -22.9,21.95z"/>
  <path id="svg_18" stroke-width="2" stroke-miterlimit="10" stroke="#535461" fill="none" d="m112.359998,24.829998s169.67,133.5 226.76,249.56"/>
  <path id="svg_19" stroke-width="2" stroke-miterlimit="10" stroke="#535461" fill="none" d="m75.749998,85.459998s82.37,-26.68 127.55,19.64"/>
  <path id="svg_20" stroke-width="2" stroke-miterlimit="10" stroke="#535461" fill="none" d="m113.549998,180.399998s98.11,-69 122.91,-42.09"/>
  <path id="svg_21" stroke-width="2" stroke-miterlimit="10" stroke="#535461" fill="none" d="m206.139998,5.309998s-16.91,43.39 4,106.46"/>
  <path id="svg_22" stroke-width="2" stroke-miterlimit="10" stroke="#535461" fill="none" d="m330.189998,143.099998s-12.81,28.73 -71.9,18.68"/>
  <path id="svg_23" stroke-width="2" stroke-miterlimit="10" stroke="#535461" fill="none" d="m248.979998,249.529998s45.47,-45.48 31.57,-62"/>
  <ellipse id="svg_24" opacity="0.1" fill="#6c63ff" ry="41.08" rx="485.85" cy="723.13" cx="485.85"/>
  <path id="svg_25" fill="url(#7a49f6f8-cfb3-4a5a-81e0-f7f3caa92e45)" d="m863.029998,399.239998c-2.07,-6.06 -5.06,-13.74 -7.42,-15.55a2.21,2.21 0 0 0 -0.47,-0.29l-0.29,0l0,-7.49l-5.58,0.89a53.35,53.35 0 0 1 -2,-8.29a3.85,3.85 0 0 0 4.19,0.84c-0.09,-0.15 -0.17,-0.31 -0.25,-0.47l0.25,-0.11a10.37,10.37 0 0 1 -1.35,-5.08a18.51,18.51 0 0 1 0.77,-4.8c1,-3.45 2.69,-6.67 3.63,-10.14a24.64,24.64 0 0 0 0.84,-6.85a25,25 0 0 0 -2.6,-11.3a6.6,6.6 0 0 0 -2,-2.58a25.49,25.49 0 0 0 -2.42,-1.18a13.07,13.07 0 0 1 -3.52,-3.51a31.56,31.56 0 0 0 -15.25,-10.18a8.93,8.93 0 0 0 -4.88,-0.39c-3.75,1 -5.11,5.65 -8.15,8.09c-2.68,2.15 -6.36,2.37 -9.73,3.09s-6.76,2.15 -9.06,4.75a9.83,9.83 0 0 0 -2.43,6.55a6.59,6.59 0 0 0 2.68,5.86a8.42,8.42 0 0 0 7.11,1a24.18,24.18 0 0 0 18.31,30.4l0.65,1.17l0,0a50.08,50.08 0 0 1 4.54,11.85c-5.14,2.91 -10.75,5.64 -14.14,5.9a23.82,23.82 0 0 1 -0.74,3.92a21.62,21.62 0 0 1 -4.45,8.75c-4.61,5.18 -25.34,44.34 -25.34,44.34s-0.65,1.56 -1.72,4.22c-12.87,1.58 -33.88,3.86 -39.74,2.69l-23,-21.88s-7.44,5.68 -6.79,12.58l-4.09,-3.94s-21.88,16.7 12.67,27.64l52.57,6.1c-5,15.11 -9.68,32.7 -8.23,42.27l0.43,0a19.88,19.88 0 0 0 3,-0.23l-0.09,1.7l-5.09,90.69s-1.15,16.7 14.4,24.18c0,0 19,55.85 11.52,62.19c0,0 0.89,0.47 2.39,1.12l-15.63,13.85s-11.52,2.88 -17.85,2.3a4.57,4.57 0 0 0 -5.05,3.4c0,0.12 0,0.24 -0.06,0.36l0,0.15c0,0.12 0,0.24 0,0.37s0,0.09 0,0.14s0,0.21 0,0.32s0,0.09 0,0.13s0,0.25 0.07,0.37l0,0.14q0.05,0.2 0.13,0.4l0.05,0.12c0.05,0.13 0.11,0.26 0.18,0.39l0,0.09c0.07,0.13 0.15,0.25 0.23,0.38l0.07,0.11q0.14,0.2 0.31,0.4l0.09,0.1c0.12,0.14 0.25,0.27 0.38,0.4l0.06,0.05l0.43,0.37l0.09,0.07c0.16,0.13 0.34,0.25 0.52,0.37l0.12,0.08c0.19,0.12 0.39,0.24 0.6,0.35l0.09,0l0.65,0.32l0.09,0l0.76,0.3l0.16,0.06l0.83,0.27l0.14,0l0.91,0.24l0.07,0l1,0.2l0.2,0l1.08,0.16l0.21,0l1.22,0.12c2.37,0.18 5.56,0.25 9.25,0.23l0,0s0,0.09 0,0.14s0,0.21 0,0.32l0,0.13c0,0.12 0,0.25 0.07,0.37l0,0.14q0.05,0.2 0.13,0.4l0.05,0.12c0.05,0.13 0.11,0.26 0.18,0.39l0,0.09c0.07,0.13 0.15,0.25 0.23,0.38l0.07,0.11q0.14,0.2 0.31,0.4l0.09,0.1c0.12,0.14 0.25,0.27 0.38,0.4l0.06,0.05l0.43,0.37l0.09,0.07c0.16,0.13 0.34,0.25 0.52,0.37l0.13,0.08c0.19,0.12 0.39,0.24 0.6,0.35l0.09,0l0.65,0.32l0.09,0l0.76,0.3l0.16,0.06l0.83,0.27l0.14,0l0.91,0.24l0.07,0l1,0.2l0.2,0l1.08,0.16l0.21,0l1.22,0.12c15,1.15 62.76,-2.3 62.76,-2.3l0,-0.13l0,0l0,-0.17l0,0c0.47,-2.23 2.77,-15.19 -5.39,-24.77c0.24,-0.25 0.48,-0.52 0.7,-0.8c0,0 -6.33,-10.94 -2.88,-14.4s-17.27,-63.34 -17.27,-63.34s-10.94,-17.27 -4.61,-36.85s-0.58,-40.88 -0.58,-40.88s15.1,-4.49 15.41,-23.08c0,-0.56 0,-1.14 0,-1.73a6.11,6.11 0 0 0 1,0.06a4.47,4.47 0 0 0 0.64,0s-2.88,-10.36 0.58,-17.85s10.94,-0.58 17.85,-31.09c5,-22.08 9.4,-47.48 11.45,-59.84a31.51,31.51 0 0 0 -0.94,-14.91zm-131.41,64.78l-5.25,-5c1.74,0.72 3.67,1.43 5.83,2.11l19.8,2.3c-8.84,0.8 -17.05,1.25 -20.38,0.59z"/>
  <path id="svg_26" fill="#fdc2cc" d="m781.739998,461.099998s-40.73,5.66 -49.22,4l-22.67,-21.56s-21.5,16.41 12.45,27.15l63.4,7.41l-3.96,-17z"/>
  <path id="svg_27" opacity="0.05" d="m781.739998,461.099998s-40.73,5.66 -49.22,4l-22.67,-21.56s-21.5,16.41 12.45,27.15l63.4,7.41l-3.96,-17z"/>
  <path id="svg_28" fill="#47465a" d="m796.449998,690.749998l-19.8,17.54s-11.31,2.83 -17.54,2.26s-9.05,9.62 5.66,10.75s61.66,-2.26 61.66,-2.26s4.53,-18.1 -9.05,-28.29l-20.93,0z"/>
  <path id="svg_29" opacity="0.05" d="m796.449998,690.749998l-19.8,17.54s-11.31,2.83 -17.54,2.26s-9.05,9.62 5.66,10.75s61.66,-2.26 61.66,-2.26s4.53,-18.1 -9.05,-28.29l-20.93,0z"/>
  <path id="svg_30" opacity="0.3" fill="#fff" d="m827.139998,711.209998a31.2,31.2 0 0 1 -0.71,6.13s-47,3.39 -61.66,2.26c-7.07,-0.54 -10.08,-3.18 -10.62,-5.71c-0.64,2.9 1.92,6.74 10.62,7.41c14.71,1.13 61.66,-2.26 61.66,-2.26a32.69,32.69 0 0 0 0.71,-7.83z"/>
  <path id="svg_31" fill="#fdc2cc" d="m819.639998,369.999998s12.45,17.54 7.92,29.42s23.76,-12.45 23.76,-12.45s-9.05,-15.84 -4.53,-32.81l-27.15,15.84z"/>
  <path id="svg_32" fill="#47465a" d="m816.249998,697.539998l-19.8,17.56s-11.31,2.83 -17.54,2.26s-9.06,9.6 5.66,10.74s61.66,-2.26 61.66,-2.26s4.53,-18.1 -9.05,-28.29l-20.93,-0.01z"/>
  <path id="svg_33" fill="#6748af" d="m822.909998,696.579998c-2.95,3.64 -7.11,5 -11.46,5.25c-9.89,0.47 -20.78,-5.25 -20.78,-5.25c7.35,-6.22 -11.31,-61.1 -11.31,-61.1c-15.27,-7.35 -14.14,-23.76 -14.14,-23.76l5,-89.07l1.25,-22.37l15.84,-9.62l12.49,9.58l11.84,9.09a47.6,47.6 0 0 1 1.48,8.83c1.37,20.79 -15.06,25.68 -15.06,25.68s6.79,20.93 0.57,40.16s4.53,36.2 4.53,36.2s20.37,58.83 17,62.23s2.75,14.15 2.75,14.15z"/>
  <path id="svg_35" fill="#7559b2" d="m841.709998,700.369998c-9.62,11.88 -32.24,0 -32.24,0a3.6,3.6 0 0 0 1,-1.54c4.15,-11.28 -14,-65.21 -14,-65.21c-15.27,-7.35 -17,-24.89 -17,-24.89l-4,-90.65l-0.52,-11.74l23.8,-9.09l7.31,-2.79l24.33,18.64a44.12,44.12 0 0 1 1.56,11.83c-0.3,18.29 -15.1,22.7 -15.1,22.7s6.79,20.93 0.57,40.16s4.53,36.2 4.53,36.2s20.37,58.83 17,62.23s2.76,14.15 2.76,14.15z"/>
  <path id="svg_36" opacity="0.1" d="m831.949998,524.949998c-4.89,-0.7 -14.79,-6.59 -19.88,-9.79c-1.94,-1.22 -3.18,-2 -3.18,-2s-5.09,-14.14 -18.67,-3.39a50.82,50.82 0 0 1 -14.75,8.33a34.51,34.51 0 0 1 -6.3,1.58l1.25,-22.37l15.84,-9.62l12.49,9.58l7.31,-2.79l24.33,18.62a44.12,44.12 0 0 1 1.56,11.85z"/>
  <path id="svg_37" fill="#e5c302" d="m862.569998,416.429998c-2,12.14 -6.34,37.09 -11.25,58.79c-6.79,30 -14.14,23.19 -17.54,30.55s-0.57,17.54 -0.57,17.54c-5.66,0.57 -24.33,-11.88 -24.33,-11.88s-5.09,-14.14 -18.67,-3.39s-24.33,10.18 -24.33,10.18c-2.83,-18.67 18.1,-68.45 18.1,-68.45s20.39,-38.47 24.87,-43.56a21.24,21.24 0 0 0 4.37,-8.6a23.4,23.4 0 0 0 0.72,-3.85c7.35,-0.57 25.46,-13 25.46,-13l14.14,-2.26l0,7.35a2.17,2.17 0 0 1 0.46,0.28c2.33,1.78 5.26,9.33 7.29,15.28a31,31 0 0 1 1.28,15.02z"/>
  <path id="svg_38" opacity="0.1" d="m851.319998,393.199998s-14.71,-11.88 -36.77,26.59s-27.15,32.24 -27.15,32.24s4.53,17 2.26,20.37c0,0 15.27,-1.13 20.93,0s40.73,-43 40.73,-43s18.11,-24.89 0,-36.2z"/>
  <path id="svg_39" opacity="0.1" d="m850.759998,390.929998s-14.71,-11.83 -36.77,26.59s-27.14,32.25 -27.14,32.25s17.52,19.23 23.18,20.33s40.73,-43 40.73,-43s18.09,-24.85 0,-36.17z"/>
  <path id="svg_40" opacity="0.1" d="m789.139998,468.719998c0.23,-4.19 -1.35,-11.56 -2.26,-15.38c3.44,-0.45 5.61,-0.75 5.61,-0.75l4,17l-7.35,-0.87z"/>
  <path id="svg_41" opacity="0.1" d="m847.359998,355.289998l-27.15,15.81a58,58 0 0 1 3.16,5.18a23.87,23.87 0 0 0 4.76,0.48c7.25,0 10.63,-7.61 15,-12.73c-0.28,-4.08 3.02,-4.18 4.23,-8.74z"/>
  <circle id="svg_42" fill="#fdc2cc" r="23.76" cy="351.9" cx="827.57"/>
  <path id="svg_43" opacity="0.1" d="m797.509998,332.679998a16.24,16.24 0 0 1 8.9,-4.67c3.3,-0.71 6.92,-0.93 9.56,-3c3,-2.39 4.32,-6.93 8,-7.94a8.77,8.77 0 0 1 4.79,0.38a31,31 0 0 1 15,10a12.84,12.84 0 0 0 3.45,3.45a25,25 0 0 1 2.38,1.16a6.48,6.48 0 0 1 1.94,2.53a24.59,24.59 0 0 1 1.72,17.27c-0.92,3.41 -2.58,6.57 -3.56,10s-1.23,7.24 0.57,10.27c-1.74,0.89 -3.94,-0.23 -5,-1.85s-1.42,-3.62 -2,-5.49a21,21 0 0 0 -6.13,-9.53c-1.78,-1.58 -5,-2.64 -6.21,-0.6c-0.48,0.79 -0.45,1.79 -0.86,2.61c-0.81,1.6 -3.15,1.92 -4.7,1a7.21,7.21 0 0 1 -2.94,-4.36c-2.33,-7.88 -6.3,-12.84 -14.73,-9.47c-3.14,1.26 -6.84,2.11 -9.86,-0.05c-3.98,-2.85 -3.17,-8.49 -0.32,-11.71z"/>
  <path id="svg_44" fill="#b96b6b" d="m797.509998,332.099998a16.24,16.24 0 0 1 8.9,-4.67c3.3,-0.71 6.92,-0.93 9.56,-3c3,-2.39 4.32,-6.93 8,-7.94a8.77,8.77 0 0 1 4.79,0.38a31,31 0 0 1 15,10a12.84,12.84 0 0 0 3.45,3.45a25,25 0 0 1 2.38,1.16a6.48,6.48 0 0 1 1.94,2.53a24.59,24.59 0 0 1 1.72,17.27c-0.92,3.41 -2.58,6.57 -3.56,10s-1.23,7.24 0.57,10.27c-1.74,0.89 -3.94,-0.23 -5,-1.85s-1.42,-3.62 -2,-5.49a21,21 0 0 0 -6.13,-9.53c-1.78,-1.58 -5,-2.64 -6.21,-0.6c-0.48,0.79 -0.45,1.79 -0.86,2.61c-0.81,1.6 -3.15,1.92 -4.7,1a7.21,7.21 0 0 1 -2.94,-4.36c-2.33,-7.88 -6.3,-12.84 -14.73,-9.47c-3.14,1.26 -6.84,2.11 -9.86,-0.05c-3.98,-2.84 -3.17,-8.47 -0.32,-11.71z"/>
  <path fill-opacity="0" id="svg_45" opacity="0.05" d="m854.049998,386.099998l-11.5,0s-22.63,11.31 -23.19,10.75c-0.38,-0.38 -3.88,0.27 -6.1,0.74a23.4,23.4 0 0 0 0.72,-3.85c7.35,-0.57 25.46,-13 25.46,-13l14.14,-2.26l0,7.35a2.17,2.17 0 0 1 0.47,0.27z"/>
  <path id="svg_46" opacity="0.3" fill="#fff" d="m846.939998,717.999998a31.2,31.2 0 0 1 -0.71,6.13s-47,3.39 -61.66,2.26c-7.07,-0.54 -10.08,-3.18 -10.62,-5.71c-0.64,2.9 1.92,6.74 10.62,7.41c14.71,1.13 61.66,-2.26 61.66,-2.26a32.69,32.69 0 0 0 0.71,-7.83z"/>
  <g id="svg_47" opacity="0.05">
   <path id="svg_48" d="m784.849998,507.469998c-7.63,6 -14.38,8.51 -18.81,9.51c0,0.42 0.08,0.84 0.14,1.24c0,0 10.75,0.57 24.33,-10.18a18.23,18.23 0 0 1 7.27,-3.8c-2.93,-1.41 -7.19,-1.32 -12.93,3.23z"/>
   <path id="svg_49" d="m861.619998,401.399998c-2,-6 -5,-13.5 -7.29,-15.28a2.17,2.17 0 0 0 -0.46,-0.28s-4.68,0.16 -4.53,0.28c2.33,1.78 4.59,8.76 6.62,14.71a31,31 0 0 1 1.23,15c-2,12.14 -6.34,37.09 -11.25,58.79c-6.79,30 -14.14,23.19 -17.54,30.55c-2.78,6 -1.39,13.94 -0.79,16.61c2.42,1 4.52,1.63 5.88,1.49c0,0 -2.83,-10.18 0.57,-17.54s10.75,-0.57 17.54,-30.55c4.91,-21.69 9.23,-46.65 11.25,-58.79a31,31 0 0 0 -1.23,-14.99z"/>
  </g>
  <path id="svg_50" fill="url(#53018405-060f-4bce-97d3-1ae9b44325c4)" d="m284.209998,715.899998s-13,0.9 -21.1,-13a46.72,46.72 0 0 0 -5.54,-7.87a26.6,26.6 0 0 1 -3.89,-14.13c0.45,-10.32 -10.32,-66.88 -10.32,-66.88s1.35,-21.55 -9.43,-35c-7.09,-8.86 -17.29,-34.26 -23.44,-50.58a3.39,3.39 0 0 0 1.45,0.76l-0.25,-1.41l0.25,0.06l-3.14,-17.51a79.68,79.68 0 0 1 -11.6,-17.59l0.72,-0.15l9.53,-2s15.49,-22 16.44,-32.84l1.26,0.06l1.78,0c19.71,-0.43 42.91,2.25 42.91,2.25l0,0c0,-0.07 -0.11,-0.35 -0.23,-0.79l0,0a53.85,53.85 0 0 1 -1.39,-6.63l0.89,-0.06l8.82,-0.59s30.52,-34.11 19.3,-40.4s-22.89,28.28 -22.89,28.28l-3.77,0.69l-1,0.19c0.1,-0.15 0.2,-0.29 0.32,-0.43s-49.83,-2.24 -57.46,-14.36c0,0 -22,-17.51 -22.89,-29.18c-0.48,-6.19 -4.36,-9.48 -7.91,-11.2a17.26,17.26 0 0 0 -8.72,-1.63l-10.3,0.71l0.73,1.3l-0.29,0a34.65,34.65 0 0 1 -1.62,-4.56l0.21,0c-0.07,-0.32 -0.14,-0.64 -0.2,-1a24.24,24.24 0 0 0 17.85,-29.85a9.7,9.7 0 0 0 3,-0.08c3.78,-0.78 6.47,-4.62 6.57,-8.48c0,-0.25 0,-0.5 0,-0.75c0,0 0,-0.1 0,-0.15a13,13 0 0 0 -5,-10c-2.06,-1.71 -4.51,-2.93 -6.38,-4.83c-2.22,-2.27 -3.43,-5.31 -5.16,-8a23.69,23.69 0 0 0 -12.16,-9.47c-3.72,-1.26 -8.27,-1.4 -11.12,1.3c-1.47,1.39 -2.32,3.38 -4,4.55c-2.37,1.69 -5.59,1.19 -8.49,1.53c-5.26,0.62 -9.88,4.37 -12.2,9.14a21,21 0 0 0 -2,9.65a25.79,25.79 0 0 0 0.81,6.78c0.56,2.21 1.39,4.34 2,6.53c1.26,4.56 1.55,9.36 3,13.87a17.45,17.45 0 0 0 5.62,8.52l-0.43,1.86c-0.28,0.06 -7.27,1.56 -12.11,12.12c-3.82,8.32 -16.74,16.92 -22.42,20.39a9.35,9.35 0 0 0 -4.23,5.87a30.53,30.53 0 0 0 -0.72,7.46c-0.1,5.41 1,12.89 5.38,22.38c9.88,21.55 17.06,31 17.06,31s0.55,6.6 0.58,13.56c0,5.18 -0.38,10.34 -1.48,12.92c-0.93,2.18 -1.22,7.75 -1.2,14.1c0,12.19 1.2,28.1 1.2,28.1s3.43,0.65 8.75,1.43l3.31,58.19a28,28 0 0 1 -6.33,19.44a43,43 0 0 1 -8,7.58c-9.43,6.73 -29.63,77.66 -29.63,77.66s1,0.06 2.62,0.19l-6.21,17.32s24.8,19 39.9,13.81a14.62,14.62 0 0 1 5,-0.71c3,0 9.35,-2.35 5.8,-5.46c-6.45,-5.64 -14.18,-14.18 -19.35,-20.12a10.29,10.29 0 0 1 1.4,0.82l0,-0.14l0.21,0.14s0.05,-0.7 0.16,-1.83l-0.22,-0.07c0.46,-4.67 1.9,-16.41 4.77,-17.85c3.59,-1.8 30.07,-54.31 30.07,-54.31l26.48,-68.23s21.1,36.36 39.05,42.64l0,15.17s9.88,44.89 13.47,49.83s0,24.69 0,24.69a12.3,12.3 0 0 0 2.42,2.13l-2.87,16.27s20.65,-0.9 55.66,9.88c0.09,0.02 13.56,-5.8 2.34,-13zm-82.6,-234.8l-4.37,1.09l-0.86,0.22c-0.09,-0.54 -0.15,-0.86 -0.15,-0.86a8.92,8.92 0 0 1 -3.17,0.77a58.47,58.47 0 0 1 -2.66,-15.14s-2.54,-10.37 -2.68,-18.75c0.05,-3.27 0.54,-6.12 1.78,-7.73l1.46,0.12l1,1l0.07,0.07l0.52,0.47l0,0l0.54,0.49l0.09,0.08l0.59,0.51l0.1,0.09l0.6,0.51l0.06,0.05l0.67,0.55l0.15,0.12l0.71,0.57l0.06,0l0.7,0.55l0.16,0.12l0.77,0.59l0.16,0.12l0.74,0.54l0.13,0.09l0.84,0.6l0.2,0.14l0.88,0.61l0.08,0.05l0.86,0.57l0.21,0.14l0.93,0.59l0.2,0.12l0.87,0.53l0.16,0.1l1,0.58l0.24,0.14l1,0.58l0.08,0l1,0.53l0.25,0.13l1.06,0.53l0.22,0.1l1,0.46l0.19,0.09l1.11,0.48l0.27,0.11l1.16,0.46l0,0c-7.3,7.79 -10.98,26.12 -10.98,26.12z"/>
  <path id="svg_51" fill="#4f4d59" d="m90.899998,694.219998l-8.33,23.23s22.81,17.49 37.63,13.87a41.42,41.42 0 0 1 6.8,-1.1c3.07,-0.23 8.35,-2.46 5.09,-5.31c-10.52,-9.2 -24.54,-26.29 -24.54,-26.29l-16.65,-4.4z"/>
  <path id="svg_52" fill="#4f4d59" d="m229.379998,692.019998l-3.94,22.35s20.16,-0.88 54.34,9.64c0,0 13.15,-5.7 2.19,-12.71c0,0 -12.71,0.88 -20.6,-12.71s-12.71,-11.83 -12.71,-11.83l-19.28,5.26z"/>
  <path id="svg_53" fill="#359e70" d="m125.079998,529.879998l3.86,68a28.13,28.13 0 0 1 -6.71,19.89a41.23,41.23 0 0 1 -7.24,6.75c-9.2,6.57 -28.92,75.81 -28.92,75.81s22.35,1.31 28.48,5.7c0,0 1.31,-17.53 4.82,-19.28s29.36,-53 29.36,-53l25.87,-66.65s20.6,35.5 38.13,41.63l0,14.9s9.64,43.82 13.15,48.64s0,24.1 0,24.1s10.08,12.71 33.3,-0.88c0,0 -7.45,-8.33 -7,-18.41s-10.08,-65.29 -10.08,-65.29s1.31,-21 -9.2,-34.18s-28.05,-63.51 -28.05,-63.51l-12.06,-25.95l-67.71,41.73z"/>
  <g id="svg_54" opacity="0.1">
   <path id="svg_55" d="m90.239998,700.349998s19.72,-69.24 28.92,-75.81a41.75,41.75 0 0 0 7.61,-7.19a27.81,27.81 0 0 0 6.33,-19.44l-3.86,-68l64.61,-39.86l-0.88,-1.89l-67.69,41.72l3.86,68a27.81,27.81 0 0 1 -6.29,19.46a41.75,41.75 0 0 1 -7.61,7.19c-9.2,6.57 -28.92,75.81 -28.92,75.81s22.35,1.31 28.48,5.7c0,0 0.05,-0.68 0.16,-1.79c-8.64,-2.95 -24.72,-3.9 -24.72,-3.9z"/>
   <path id="svg_56" d="m230.039998,696.409998s3.51,-19.28 0,-24.1s-13.19,-48.65 -13.19,-48.65l0,-14.9c-17.49,-6.13 -38.09,-41.66 -38.09,-41.66l-1.53,4c5.94,9.42 21.79,32.81 35.71,37.68l0,14.9s9.64,43.82 13.15,48.64s0,24.1 0,24.1s4.89,6.15 15.69,5.32c-8.05,-0.64 -11.74,-5.33 -11.74,-5.33z"/>
  </g>
  <path id="svg_57" fill="#714b4f" d="m275.849998,453.629998l-8.61,0.57l-4.54,0.3l0,-11l6,-1.08l3.69,-0.67s11.39,-33.74 22.35,-27.61s-18.89,39.49 -18.89,39.49z"/>
  <path stroke="null" id="svg_58" fill="#bf7c7c" d="m137.79,363.36s-5.7,21.91 -7.45,35.5s40.75,2.63 40.75,2.63s-16.21,-19.72 -7,-30.24l-26.3,-7.89z"/>
  <path id="svg_59" fill="#ffdb01" d="m183.849998,454.509998l0.88,8.33l-13.58,-0.88l-13.64,-11.86l-13.58,-38.1l-8.76,-13.58l-6.58,-8.32l2.63,-10.08s1.2,1 3.23,2.6c6.67,5.11 22.33,15.72 33.77,12.79a13.64,13.64 0 0 0 1.56,-0.49l17.07,29.35l-3,30.24z"/>
  <path id="svg_60" opacity="0.1" d="m134.719998,377.379998s-7,1.31 -11.83,11.83c-3.71,8.09 -16.22,16.43 -21.81,19.86a9.35,9.35 0 0 0 -4.24,5.91c-1.13,5 -1.56,14.3 4.58,27.7c9.64,21 16.65,30.24 16.65,30.24s1.75,21 -0.88,27.17s0,39.88 0,39.88s46,8.76 61.35,0s13.15,-42.51 13.15,-42.51s14.46,30.64 19.72,31.55l-3.07,-17.09s-17.09,-18.41 -18,-42.07c0,0 -5.26,-21.47 -0.88,-27.17c0,0 74.06,6.14 78.44,0.88c0,0 -48.64,-2.19 -56.09,-14c0,0 -21.47,-17.09 -22.35,-28.48a12.6,12.6 0 0 0 -6.57,-10.32a17.16,17.16 0 0 0 -9.82,-2.19l-9.9,0.68s17.09,30.24 16.21,34.18s0.88,35.93 0.88,35.93s-19.68,-42.54 -28.41,-47.36s-18.84,-24.61 -18.84,-24.61l1.75,-10"/>
  <path id="svg_61" opacity="0.1" d="m183.849998,454.509998l0.88,8.33l-13.58,-0.88l-13.64,-11.86l-13.58,-38.1l-8.76,-13.58l-6.58,-8.32l2.63,-10.08s1.2,1 3.23,2.6l-0.6,3.48s10.08,19.79 18.84,24.61s28.48,47.33 28.48,47.33s-1.75,-32 -0.88,-35.93c0.6,-2.68 -7.08,-17.45 -12.07,-26.68a13.64,13.64 0 0 0 1.56,-0.49l17.07,29.33l-3,30.24z"/>
  <path id="svg_62" opacity="0.1" d="m267.219998,454.209998l-4.54,0.3l0,-11l6,-1.08c-2.11,2.79 -2.04,7.67 -1.46,11.78z"/>
  <path id="svg_63" fill="#28dc8e" d="m134.719998,376.099998s-7,1.31 -11.83,11.83c-3.71,8.09 -16.22,16.43 -21.81,19.86a9.35,9.35 0 0 0 -4.24,5.91c-1.13,5 -1.56,14.3 4.58,27.7c9.64,21 16.65,30.24 16.65,30.24s1.75,21 -0.88,27.17s0,39.88 0,39.88s46,8.76 61.35,0s13.15,-42.59 13.15,-42.59s14.46,30.68 19.72,31.55l-3.07,-17.09s-17.09,-18.41 -18,-42.07c0,0 -5.26,-21.47 -0.88,-27.17c0,0 17.09,18.41 36.37,18s42.07,2.19 42.07,2.19s-4.38,-14 0,-19.28c0,0 -48.64,-2.19 -56.09,-14c0,0 -21.47,-17.09 -22.35,-28.48a12.6,12.6 0 0 0 -6.57,-10.32a17.16,17.16 0 0 0 -9.82,-2.19l-9.9,0.68s17.13,30.18 16.25,34.18s0.88,35.93 0.88,35.93s-19.72,-42.52 -28.45,-47.34s-18.88,-24.59 -18.88,-24.59l1.75,-10"/>
  <path id="svg_64" opacity="0.1" d="m125.079998,422.099998s10.52,35.5 16.65,39.88s43.38,26.73 54.34,21.47c0,0 2.63,13.15 -1.31,16.21c0,0 -40.86,-1.6 -41.19,-1.75c0,0 -26.73,-3.51 -31.11,-16.65s-9.64,-35.5 -9.64,-35.5l12.26,-23.66z"/>
  <ellipse id="svg_65" fill="#ba7855" ry="2.19" rx="1.53" cy="459.99" cx="181.18"/>
  <ellipse id="svg_66" fill="#ba7855" ry="2.19" rx="1.53" cy="475.33" cx="185.56"/>
  <g id="svg_67" opacity="0.1">
   <path id="svg_68" d="m120.259998,538.209998s-2.63,-33.74 0,-39.88s0.88,-27.17 0.88,-27.17s-7,-9.2 -16.65,-30.24c-6.14,-13.4 -5.7,-22.7 -4.58,-27.7a9.35,9.35 0 0 1 4.25,-5.91c5.59,-3.43 18.1,-11.77 21.8,-19.86c2.72,-5.93 6.13,-8.94 8.6,-10.43l0.17,-1s-7,1.31 -11.83,11.83c-3.71,8.09 -16.22,16.43 -21.8,19.86a9.35,9.35 0 0 0 -4.25,5.91c-1.13,5 -1.56,14.3 4.58,27.7c9.64,21 16.65,30.24 16.65,30.24s1.75,21 -0.88,27.17s0,39.88 0,39.88s32.87,6.26 52.31,2.91c-19.66,2.33 -49.25,-3.31 -49.25,-3.31z"/>
   <path id="svg_69" d="m179.419998,422.099998c-0.6,2.7 0,18.58 0.49,28.3c2.12,4.33 3.45,7.19 3.45,7.19s-1.75,-32 -0.88,-35.93c0.83,-3.75 -14.56,-31.25 -16.09,-34l-3.19,0.22s17.1,30.22 16.22,34.22z"/>
   <path id="svg_70" d="m228.939998,458.889998c-19.28,0.44 -36.37,-18 -36.37,-18a7,7 0 0 0 -1.11,2.38c5,4.71 19,16.38 34.41,16c19.28,-0.44 42.07,2.19 42.07,2.19s-0.09,-0.29 -0.23,-0.79a348.85,348.85 0 0 0 -38.77,-1.78z"/>
   <path id="svg_71" d="m194.759998,495.699998s0.18,2.74 0.08,6.85c4.56,9 12.86,24.52 16.57,25.14l-0.65,-3.6c-6.4,-7.99 -16,-28.39 -16,-28.39z"/>
  </g>
  <path id="svg_72" fill="#bf7c7c" d="m207.029998,491.319998l-9.31,2l-7.34,1.55l3.94,-11l2.74,-0.69l4.27,-1.06s6.14,-30.68 18.41,-28.48s-12.71,37.68 -12.71,37.68z"/>
  <path id="svg_73" opacity="0.1" d="m197.719998,493.279998l-7.34,1.55l3.94,-11l2.74,-0.69a43.77,43.77 0 0 1 0.66,10.14z"/>
  <path id="svg_74" fill="#28dc8e" d="m125.079998,421.199998s10.52,35.5 16.65,39.88s43.38,26.73 54.34,21.47c0,0 2.63,13.15 -1.31,16.21c0,0 -40.86,-1.6 -41.19,-1.75c0,0 -26.73,-3.51 -31.11,-16.65s-9.64,-35.5 -9.64,-35.5l12.26,-23.66z"/>
  <path id="svg_75" opacity="0.1" d="m138.229998,364.239998s-0.89,3.43 -2.08,8.42a23.65,23.65 0 0 0 26.12,12c-1.05,-4.5 -0.82,-9 2.26,-12.57l-26.3,-7.85z"/>
  <circle id="svg_76" fill="#bf7c7c" r="23.66" cy="360.73" cx="156.64"/>
  <path id="svg_77" opacity="0.1" d="m177.179998,354.219998a12.67,12.67 0 0 0 5.28,0.32c3.69,-0.76 6.32,-4.51 6.41,-8.28a12.72,12.72 0 0 0 -4.88,-9.77c-2,-1.67 -4.4,-2.86 -6.23,-4.72c-2.17,-2.21 -3.35,-5.19 -5,-7.79a23.13,23.13 0 0 0 -11.91,-9.24c-3.63,-1.23 -8.07,-1.37 -10.86,1.27c-1.43,1.35 -2.27,3.3 -3.87,4.44c-2.32,1.65 -5.46,1.16 -8.29,1.49a15.8,15.8 0 0 0 -11.91,8.92a22.32,22.32 0 0 0 -1.16,15.16c0.55,2.15 1.35,4.24 1.94,6.38c1.23,4.46 1.52,9.14 2.94,13.54s4.35,8.7 8.78,10a27.76,27.76 0 0 1 2.82,-14.3a4.1,4.1 0 0 1 2,-2.22a4.85,4.85 0 0 1 2.41,0a24,24 0 0 0 16,-3.24c1.68,-1 4.3,-4.51 6.1,-4.86c2.3,-0.41 7.03,2.36 9.43,2.9z"/>
  <path id="svg_78" fill="#503f43" d="m177.179998,353.339998a12.67,12.67 0 0 0 5.28,0.32c3.69,-0.76 6.32,-4.51 6.41,-8.28a12.72,12.72 0 0 0 -4.88,-9.77c-2,-1.67 -4.4,-2.86 -6.23,-4.72c-2.17,-2.21 -3.35,-5.19 -5,-7.79a23.13,23.13 0 0 0 -11.91,-9.24c-3.63,-1.23 -8.07,-1.37 -10.86,1.27c-1.43,1.35 -2.27,3.3 -3.87,4.44c-2.32,1.65 -5.46,1.16 -8.29,1.49a15.8,15.8 0 0 0 -11.91,8.92a22.32,22.32 0 0 0 -1.16,15.12c0.55,2.15 1.35,4.24 1.94,6.38c1.23,4.46 1.52,9.14 2.94,13.54s4.35,8.7 8.78,10a27.76,27.76 0 0 1 2.82,-14.3a4.1,4.1 0 0 1 2,-2.22a4.85,4.85 0 0 1 2.41,0a24,24 0 0 0 16,-3.24c1.68,-1 4.3,-4.51 6.1,-4.86c2.3,-0.37 7.03,2.41 9.43,2.94z"/>
  <rect id="svg_79" fill="#fafbfc" height="618" width="516.75" y="107.84" x="226.33"/>
  <rect id="svg_80" fill="#210e4a" height="20.95" width="516.75" y="107.84" x="226.33"/>
  <line id="svg_81" stroke-miterlimit="10" stroke="#7983a6" fill="none" y2="359.67" x2="673.25" y1="359.67" x1="296.16"/>
  <g id="svg_82" opacity="0.5">
   <line id="svg_83" stroke-miterlimit="10" stroke="#7983a6" fill="none" y2="318.64" x2="302.16" y1="318.64" x1="296.16"/>
   <line id="svg_84" stroke-dasharray="11.78 11.78" stroke-miterlimit="10" stroke="#7983a6" fill="none" y2="318.64" x2="661.36" y1="318.64" x1="313.94"/>
   <line id="svg_85" stroke-miterlimit="10" stroke="#7983a6" fill="none" y2="318.64" x2="673.25" y1="318.64" x1="667.25"/>
  </g>
  <g id="svg_86" opacity="0.5">
   <line id="svg_87" stroke-miterlimit="10" stroke="#7983a6" fill="none" y2="277.62" x2="302.16" y1="277.62" x1="296.16"/>
   <line id="svg_88" stroke-dasharray="11.78 11.78" stroke-miterlimit="10" stroke="#7983a6" fill="none" y2="277.62" x2="661.36" y1="277.62" x1="313.94"/>
   <line id="svg_89" stroke-miterlimit="10" stroke="#7983a6" fill="none" y2="277.62" x2="673.25" y1="277.62" x1="667.25"/>
  </g>
  <g id="svg_90" opacity="0.5">
   <line id="svg_91" stroke-miterlimit="10" stroke="#7983a6" fill="none" y2="236.59" x2="302.16" y1="236.59" x1="296.16"/>
   <line id="svg_92" stroke-dasharray="11.78 11.78" stroke-miterlimit="10" stroke="#7983a6" fill="none" y2="236.59" x2="661.36" y1="236.59" x1="313.94"/>
   <line id="svg_93" stroke-miterlimit="10" stroke="#7983a6" fill="none" y2="236.59" x2="673.25" y1="236.59" x1="667.25"/>
  </g>
  <g id="svg_94" opacity="0.5">
   <line id="svg_95" stroke-miterlimit="10" stroke="#7983a6" fill="none" y2="195.57" x2="302.16" y1="195.57" x1="296.16"/>
   <line id="svg_96" stroke-dasharray="11.78 11.78" stroke-miterlimit="10" stroke="#7983a6" fill="none" y2="195.57" x2="661.36" y1="195.57" x1="313.94"/>
   <line id="svg_97" stroke-miterlimit="10" stroke="#7983a6" fill="none" y2="195.57" x2="673.25" y1="195.57" x1="667.25"/>
  </g>
  <g id="svg_98" opacity="0.3">
   <rect id="svg_99" fill="#6c63ff" height="82.05" width="27.06" y="277.62" x="314.93"/>
  </g>
  <rect id="svg_100" fill="#3e83ff" height="123.95" width="27.06" y="236.15" x="390.43"/>
  <g id="svg_101" opacity="0.3">
   <rect id="svg_102" fill="#6c63ff" height="42.33" width="27.06" y="318.2" x="465.94"/>
  </g>
  <rect id="svg_103" fill="#3e83ff" height="165.85" width="27.06" y="194.26" x="541.44"/>
  <g id="svg_104" opacity="0.3">
   <rect id="svg_105" fill="#6c63ff" height="125.26" width="27.06" y="234.41" x="616.94"/>
  </g>
  <circle id="svg_106" fill="#6c63ff" r="6.98" cy="378.43" cx="328.46"/>
  <circle id="svg_107" fill="#6c63ff" r="6.98" cy="378.43" cx="404.4"/>
  <circle id="svg_108" fill="#6c63ff" r="6.98" cy="378.43" cx="480.34"/>
  <circle id="svg_109" fill="#6c63ff" r="6.98" cy="378.43" cx="556.28"/>
  <circle id="svg_110" fill="#6c63ff" r="6.98" cy="378.43" cx="632.22"/>
  <line id="svg_111" stroke-miterlimit="10" stroke="#7983a6" fill="none" y2="623.28" x2="673.25" y1="623.28" x1="296.16"/>
  <g id="svg_112" opacity="0.5">
   <line id="svg_113" stroke-miterlimit="10" stroke="#7983a6" fill="none" y2="582.25" x2="302.16" y1="582.25" x1="296.16"/>
   <line id="svg_114" stroke-dasharray="11.78 11.78" stroke-miterlimit="10" stroke="#7983a6" fill="none" y2="582.25" x2="661.36" y1="582.25" x1="313.94"/>
   <line id="svg_115" stroke-miterlimit="10" stroke="#7983a6" fill="none" y2="582.25" x2="673.25" y1="582.25" x1="667.25"/>
  </g>
  <g id="svg_116" opacity="0.5">
   <line id="svg_117" stroke-miterlimit="10" stroke="#7983a6" fill="none" y2="541.23" x2="302.16" y1="541.23" x1="296.16"/>
   <line id="svg_118" stroke-dasharray="11.78 11.78" stroke-miterlimit="10" stroke="#7983a6" fill="none" y2="541.23" x2="661.36" y1="541.23" x1="313.94"/>
   <line id="svg_119" stroke-miterlimit="10" stroke="#7983a6" fill="none" y2="541.23" x2="673.25" y1="541.23" x1="667.25"/>
  </g>
  <g id="svg_120" opacity="0.5">
   <line id="svg_121" stroke-miterlimit="10" stroke="#7983a6" fill="none" y2="500.2" x2="302.16" y1="500.2" x1="296.16"/>
   <line id="svg_122" stroke-dasharray="11.78 11.78" stroke-miterlimit="10" stroke="#7983a6" fill="none" y2="500.2" x2="661.36" y1="500.2" x1="313.94"/>
   <line id="svg_123" stroke-miterlimit="10" stroke="#7983a6" fill="none" y2="500.2" x2="673.25" y1="500.2" x1="667.25"/>
  </g>
  <g id="svg_124" opacity="0.5">
   <line id="svg_125" stroke-miterlimit="10" stroke="#7983a6" fill="none" y2="459.18" x2="302.16" y1="459.18" x1="296.16"/>
   <line id="svg_126" stroke-dasharray="11.78 11.78" stroke-miterlimit="10" stroke="#7983a6" fill="none" y2="459.18" x2="661.36" y1="459.18" x1="313.94"/>
   <line id="svg_127" stroke-miterlimit="10" stroke="#7983a6" fill="none" y2="459.18" x2="673.25" y1="459.18" x1="667.25"/>
  </g>
  <rect id="svg_128" fill="#3e83ff" height="82.05" width="27.06" y="541.23" x="314.93"/>
  <rect id="svg_129" fill="#3e83ff" height="82.92" width="27.06" y="540.79" x="390.43"/>
  <rect id="svg_130" fill="#3e83ff" height="42.33" width="27.06" y="581.82" x="465.94"/>
  <rect id="svg_131" fill="#3e83ff" height="165.85" width="27.06" y="457.87" x="541.44"/>
  <rect id="svg_132" fill="#3e83ff" height="125.26" width="27.06" y="360.02" x="719.94"/>
  <g id="svg_133" opacity="0.7">
   <circle id="svg_134" fill="#6c63ff" r="6.98" cy="642.04" cx="328.46"/>
  </g>
  <g id="svg_135" opacity="0.7">
   <circle id="svg_136" fill="#6c63ff" r="6.98" cy="642.04" cx="404.4"/>
  </g>
  <g id="svg_137" opacity="0.7">
   <circle id="svg_138" fill="#6c63ff" r="6.98" cy="642.04" cx="480.34"/>
  </g>
  <g id="svg_139" opacity="0.7">
   <circle id="svg_140" fill="#6c63ff" r="6.98" cy="642.04" cx="556.28"/>
  </g>
  <g id="svg_141" opacity="0.7">
   <circle id="svg_142" fill="#6c63ff" r="6.98" cy="642.04" cx="632.22"/>
  </g>
  <path id="svg_143" fill="#3e83ff" d="m188.049998,723.579998a11.67,11.67 0 0 0 3.83,-5.78c0.5,-2.3 -0.48,-5.05 -2.68,-5.89c-2.46,-0.94 -5.09,0.76 -7.08,2.49s-4.28,3.69 -6.89,3.32a10.48,10.48 0 0 0 3.24,-9.81a4.1,4.1 0 0 0 -0.9,-2c-1.37,-1.46 -3.84,-0.83 -5.48,0.32c-5.2,3.66 -6.65,10.72 -6.68,17.08c-0.52,-2.29 -0.08,-4.68 -0.1,-7s-0.66,-5 -2.64,-6.22a8,8 0 0 0 -4,-0.95c-2.34,-0.09 -4.94,0.15 -6.54,1.86c-2,2.12 -1.47,5.69 0.26,8s4.35,3.8 6.77,5.42a15,15 0 0 1 4.84,4.61a4.57,4.57 0 0 1 0.36,0.82l14.65,0a40.83,40.83 0 0 0 9.04,-6.27z"/>
  <path id="svg_144" fill="#3e83ff" d="m900.049998,711.579998a11.67,11.67 0 0 0 3.83,-5.78c0.5,-2.3 -0.48,-5.05 -2.68,-5.89c-2.46,-0.94 -5.09,0.76 -7.08,2.49s-4.28,3.69 -6.89,3.32a10.48,10.48 0 0 0 3.24,-9.81a4.1,4.1 0 0 0 -0.9,-2c-1.37,-1.46 -3.84,-0.83 -5.48,0.32c-5.2,3.66 -6.65,10.72 -6.68,17.08c-0.52,-2.29 -0.08,-4.68 -0.1,-7s-0.66,-5 -2.64,-6.22a8,8 0 0 0 -4,-0.95c-2.34,-0.09 -4.94,0.15 -6.54,1.86c-2,2.12 -1.47,5.69 0.26,8s4.35,3.8 6.77,5.42a15,15 0 0 1 4.84,4.61a4.57,4.57 0 0 1 0.36,0.82l14.65,0a40.83,40.83 0 0 0 9.04,-6.27z"/>
  <path id="svg_145" fill="#fdc2cc" d="m796.449998,469.559998l-7.31,-0.85l-56,-6.51c-33.99,-10.74 -12.49,-27.1 -12.49,-27.1l22.63,21.5c6.53,1.31 32.13,-1.74 43.6,-3.21c3.44,-0.45 5.61,-0.75 5.61,-0.75l3.96,16.92z"/>
  <path id="svg_146" fill="#e5c302" d="m851.319998,392.099998s-14.71,-11.88 -36.77,26.59s-27.15,32.24 -27.15,32.24s4.53,17 2.26,20.37c0,0 15.27,-1.13 20.93,0s40.73,-43 40.73,-43s18.11,-24.92 0,-36.2z"/>
 </g>
</svg>