<svg xmlns="http://www.w3.org/2000/svg" xmlns:xlink="http://www.w3.org/1999/xlink" width="52px" height="78px" viewBox="0 0 52 78" version="1.1">
    <!-- Generator: Sketch 42 (36781) - http://www.bohemiancoding.com/sketch -->
    <title>icn-personalized-strategy</title>
    <desc>Created with Sketch.</desc>
    <defs/>
    <g id="Page-1" stroke="none" stroke-width="1" fill="none" fill-rule="evenodd">
        <g id="Artboard" transform="translate(-306.000000, -19.000000)">
            <g id="icn-personalized-strategy" transform="translate(306.000000, 19.000000)">
                <path d="M32.4279557,2.45742919 C32.5373484,2.34803648 32.5373484,2.16050611 32.4279557,2.0511134 L30.4588868,0.0820445358 C30.3494941,-0.0273481786 30.1619638,-0.0273481786 30.052571,0.0820445358 L24.0672268,6.0830163 L21.4574292,3.45759115 C21.3480365,3.34819844 21.1605061,3.34819844 21.0511134,3.45759115 L19.0820445,5.42666001 C18.9726518,5.53605273 18.9726518,5.72358309 19.0820445,5.83297581 L23.8640689,10.6150002 C23.926579,10.6618828 23.9890892,10.6931378 24.0672268,10.6931378 C24.1453645,10.6931378 24.2078746,10.6618828 24.2703847,10.6150002 L32.4279557,2.45742919 Z" id="check" fill="#5CDDB2"/>
                <g id="Group" transform="translate(0.000000, 26.000000)">
                    <ellipse id="background-circle" fill="#F5D5FF" cx="26" cy="26" rx="26" ry="26" style="&#10;    fill: rgba(62, 131, 255, 0.32);&#10;"/>
                    <g id="fingerprint" transform="translate(7.849057, 7.849057)" stroke="#CA45F2" stroke-width="1.75" stroke-linecap="round" stroke-linejoin="round" style="&#10;    stroke: #3e83ff;&#10;">
                        <path d="M17.3946541,17.3946541 C17.3946541,17.3946541 17.3946541,24.2012579 16.6383648,25.7138365 C15.8820755,27.2264151 12.1006289,34.0330189 11.3443396,34.7893082" id="Path-8-Copy"/>
                        <path d="M15.8820755,35.5455975 C17.3946541,34.0330189 21.1761006,27.2264151 21.9323899,21.9323899" id="Path-9-Copy"/>
                        <path d="M7.56289308,31.8630496 C10.5880503,28.0816031 13.6132075,23.5438672 13.6132075,21.2749993 C13.6132075,19.0061314 12.8569182,14.4683955 16.6383648,13.7121062 C20.4198113,12.9558169 21.9323899,16.7372634 21.9323899,18.249842" id="Path-10-Copy"/>
                        <path d="M4.53773585,29.495283 C4.53773585,29.495283 7.56289308,25.7138365 7.56289308,24.2012579" id="Path-11-Copy"/>
                        <path d="M23.4449686,11.3443396 C24.9575472,12.8569182 26.4701258,15.8820755 26.4701258,21.1761006 C26.4701258,26.4701258 23.4449686,31.7641509 21.1761006,35.5455975" id="Path-12-Copy"/>
                        <path d="M9.0754717,21.3772632 C9.0754717,16.8395274 9.83176101,13.0580809 11.3443396,11.5455022 C12.8569182,10.0329236 14.3694969,8.520345 19.663522,9.27663431" id="Path-13-Copy"/>
                        <path d="M27.9827044,32.5204403 C29.495283,29.495283 31.7641509,21.9323899 31.0078616,17.3946541" id="Path-14-Copy"/>
                        <path d="M32.5204403,8.31918239 C34.7893082,11.3443396 37.8144654,17.3946541 34.7893082,23.4449686" id="Path-15-Copy"/>
                        <path d="M0,19.663522 C0.756289308,15.1257862 0.756289308,10.5880503 3.02515723,8.31918239" id="Path-17-Copy"/>
                        <path d="M1.51257862,25.7138365 C3.78144654,23.4449686 5.29402516,22.6886792 5.29402516,16.6383648 C5.29402516,10.5880503 9.83176101,6.05031447 12.1006289,5.29402516" id="Path-18-Copy"/>
                        <path d="M16.6383648,4.53773585 C21.1761006,4.53773585 24.8187821,6.02928098 27.6711729,9.01237123 C28.8810149,10.2776494 29.8010858,11.8112615 30.2515723,13.6132075" id="Path-19-Copy"/>
                        <path d="M5.29402516,5.29402516 C7.56289308,1.51257862 12.1006289,1.21562081e-16 16.6383648,0 C21.1761006,0 27.9827044,1.51257862 29.495283,4.53773585" id="Path-20-Copy"/>
                    </g>
                </g>
            </g>
        </g>
    </g>
</svg>